<svg width="184" height="155" viewBox="0 0 184 155" fill="none" xmlns="http://www.w3.org/2000/svg">
<path d="M24.4186 0.00446694C16.847 -0.0286531 11.8146 0.133266 11.8146 0.133266C10.6206 0.171015 9.48817 0.671769 8.6568 1.52959C7.82542 2.3874 7.36036 3.535 7.36 4.72959V14.1209H4.5448C3.33959 14.1214 2.18389 14.6004 1.33168 15.4526C0.47947 16.3048 0.000487642 17.4605 0 18.6657V147.576C0.000487642 148.781 0.47947 149.937 1.33168 150.789C2.18389 151.641 3.33959 152.12 4.5448 152.121H84.456C89.2878 155.372 95.5089 154.627 99.544 152.121H179.455C180.66 152.12 181.816 151.641 182.668 150.789C183.521 149.937 184 148.781 184 147.576V18.6657C184 17.4605 183.521 16.3048 182.668 15.4526C181.816 14.6004 180.66 14.1214 179.455 14.1209H176.64V4.72959C176.64 3.53469 176.174 2.38683 175.343 1.52896C174.511 0.671095 173.378 0.170547 172.184 0.133266C172.184 0.133266 167.153 -0.0286531 159.58 0.00446694C152.01 0.0375869 141.901 0.263907 131.744 1.04039C121.587 1.81319 111.397 3.10119 103.303 5.46007C99.2551 6.63767 95.7113 8.04895 92.8114 10.1318C92.5354 10.3305 92.2668 10.5495 92 10.7685C91.7365 10.5475 91.4659 10.3352 91.1886 10.1318C88.2887 8.04895 84.7449 6.63951 80.6969 5.46007C72.6027 3.10303 62.4128 1.81503 52.256 1.04039C42.0992 0.263907 31.9902 0.0375869 24.4186 0.00446694ZM159.559 4.60447C167.048 4.57135 172.04 4.72959 172.04 4.72959V133.53C172.04 133.53 102.26 130.817 93.0065 145.096C92.3643 146.056 91.724 146.117 91.0837 145.239C82.2002 130.801 11.96 133.53 11.96 133.53V4.72959C11.96 4.72959 16.9519 4.57503 24.4407 4.60815C46.9071 4.70751 91.8565 6.52175 92 19.4496C92.1435 6.52175 137.093 4.70383 159.559 4.60447ZM9.0896 137.125C9.95254 137.814 11.0348 138.17 12.1385 138.128C12.1385 138.128 31.8596 137.37 51.4758 138.799C61.283 139.513 71.0755 140.81 78.005 142.847C78.1982 142.906 78.3638 142.971 78.5533 143.03H9.09144L9.0896 137.125ZM174.907 137.125V143.03H105.445C105.634 142.971 105.8 142.906 105.993 142.849C112.923 140.81 122.715 139.513 132.522 138.799C152.137 137.37 171.862 138.128 171.862 138.128C172.965 138.17 174.044 137.814 174.907 137.125Z" fill="url(#paint0_linear_272_443)" fill-opacity="0.98"/>
<path d="M159.541 9.20815C152.135 9.24127 142.271 9.46023 132.441 10.2109C122.612 10.9617 112.803 12.2754 105.872 14.2939C102.407 15.3022 99.682 16.524 98.1769 17.6041C96.6736 18.6823 96.6037 19.1221 96.6 19.4993V41.0843C96.6828 41.0401 96.784 40.9923 96.8042 40.9555C96.8263 40.911 96.8581 40.872 96.8973 40.8414C96.9364 40.8108 96.982 40.7895 97.0306 40.7789C97.3158 40.7163 97.7353 40.9813 97.98 41.4486C98.2799 42.019 98.2818 42.1166 98.0168 42.5894C97.8549 42.8765 97.4354 43.307 97.0858 43.5425C96.8576 43.6971 96.7454 43.8241 96.6 43.9602V73.1261C96.9312 72.5778 96.9938 72.011 96.7914 71.1996C96.589 70.3937 96.6074 70.2759 97.1649 69.159C97.7077 68.0679 98.2339 67.3282 99.2349 66.2555C99.4601 65.9948 99.595 65.6682 99.6194 65.3245C99.6194 64.9933 99.8458 64.5425 100.251 64.0696C101.399 62.7301 101.518 61.961 100.545 62.1339C99.9378 62.2443 99.9433 62.2866 99.9175 59.9811C99.9065 59.0243 99.9838 58.5238 100.164 58.3435C100.326 58.1816 100.959 58.0233 101.807 57.9295L103.187 57.7749V57.0555C103.187 56.187 102.72 55.4437 102.225 55.532C101.774 55.6129 101.54 55.0867 101.894 54.7849C102.101 54.6414 102.35 54.5714 102.602 54.5862C102.985 54.6138 103.033 54.5623 102.942 54.2164C102.854 53.8778 102.906 53.8153 103.248 53.8429C103.638 53.8723 104.484 53.2725 104.291 53.1032C104.196 53.0204 102.506 53.5926 101.699 53.979C101.257 54.1925 101.255 54.1814 101.555 53.6773C101.787 53.289 101.813 53.1069 101.653 52.9339C101.493 52.7591 101.528 52.6266 101.8 52.3635C102.076 52.093 102.094 52.025 101.875 52.0526C101.677 52.0802 101.728 51.9477 102.048 51.611C102.453 51.1878 102.471 51.1068 102.221 50.8878C101.969 50.6707 101.908 50.6854 101.675 51.0222C101.545 51.2049 101.449 51.4093 101.391 51.6257C101.378 51.7489 101.358 52.0268 101.34 52.2476C101.321 52.5273 101.09 52.7573 100.563 53.0241C99.5753 53.5227 99.4962 53.5301 99.3821 53.0885C99.3269 52.8806 99.3674 52.6966 99.4722 52.6782C99.579 52.6598 99.6121 52.4445 99.5458 52.1869C99.3894 51.5594 99.5974 51.0277 99.969 51.1123C100.131 51.1491 100.205 51.1215 100.129 51.0571C99.9083 50.8639 100.552 50.1555 100.92 50.1923C101.148 50.2126 101.294 50.0856 101.362 49.7967C101.417 49.5612 101.39 49.3809 101.298 49.3974C101.114 49.4305 101.27 48.3118 101.531 47.7304C101.625 47.5188 101.912 47.3182 102.184 47.2704C102.573 47.2005 102.652 47.263 102.573 47.5961C102.499 47.9015 102.562 47.9898 102.828 47.942C103.233 47.8684 103.279 48.1021 102.987 48.7295C102.839 49.046 102.852 49.2263 103.029 49.4195C103.316 49.7305 103.667 50.2862 103.931 50.8529C104.037 51.081 104.253 51.2945 104.413 51.3313C104.63 51.3791 104.67 51.5668 104.582 52.0893C104.466 52.7609 104.475 52.7738 104.906 52.4886C105.15 52.3249 105.48 51.8906 105.634 51.5171C105.844 51.0148 106.096 50.7627 106.619 50.5327C107.226 50.2678 107.32 50.1463 107.32 49.6679C107.32 49.3606 107.241 49.1233 107.136 49.1417C106.724 49.2153 106.948 48.023 107.443 47.528C107.714 47.2557 108.001 47.022 108.078 47.0073C108.356 46.9576 108.409 48.2217 108.146 48.5841C107.631 49.2944 107.953 49.6955 108.854 49.4618C109.134 49.3882 109.416 49.4103 109.48 49.5078C109.555 49.6238 109.774 49.563 110.102 49.333C110.895 48.7718 111.64 48.494 111.64 48.7626C111.64 49.2962 112.365 48.1334 112.459 47.4452C112.654 46.021 112.81 45.3734 112.976 45.3439C113.068 45.3255 113.313 45.1084 113.519 44.8545C113.8 44.5378 114.182 44.3295 114.601 44.2657C114.987 44.1939 115.425 44.0302 115.578 43.9032C116.135 43.434 115.188 43.4966 114.325 43.9841C113.563 44.4165 113.456 44.4386 113.037 44.2252C112.786 44.0964 112.571 43.9381 112.571 43.8701L112.479 42.7955C112.407 41.9417 112.461 41.7596 113.005 41.0107C114.258 39.283 114.306 39.1928 114.069 38.9352C113.998 38.8658 113.912 38.8132 113.819 38.781C113.725 38.7489 113.625 38.7381 113.526 38.7494C113.175 38.8119 112.691 39.7945 112.877 40.0742C112.939 40.1717 112.601 40.6961 112.126 41.2389C111.044 42.4717 110.77 43.3586 111.28 43.9492C111.78 44.527 111.717 45.5702 111.176 45.6678C111.037 45.6917 110.845 46.2069 110.716 46.9282C110.536 47.9217 110.424 48.161 110.128 48.2162C109.925 48.2511 109.763 48.3689 109.763 48.4774C109.763 48.586 109.592 48.7019 109.386 48.7387C109.18 48.7755 109.013 48.8969 109.013 49.0055C109.013 49.3312 108.446 49.3275 108.319 49.0018C108.249 48.8215 108.328 48.5786 108.521 48.3983C108.823 48.1131 108.821 48.0303 108.485 47.0441L108.126 45.9953L107.555 46.597C106.58 47.6292 106.102 47.4562 105.905 46.0045C105.799 45.2451 105.764 44.4776 105.8 43.7118C105.811 43.5701 105.905 43.491 106.008 43.5389C106.111 43.5886 106.199 43.5094 106.199 43.3678C106.201 43.2242 106.549 42.7826 106.968 42.3815C107.616 41.7651 108.904 39.7926 108.922 39.4007C108.934 39.1118 109.842 37.2424 109.982 37.2185C110.067 37.2037 110.137 37.0768 110.137 36.9333C110.137 36.7916 110.288 36.4751 110.468 36.2341C110.648 35.9912 110.908 35.5459 111.044 35.2441C111.18 34.9442 111.579 34.4805 111.935 34.2174C112.29 33.9543 112.582 33.6599 112.582 33.5661C112.582 33.4741 112.775 33.4189 113.016 33.4373C113.425 33.4722 114.071 32.8797 113.94 32.5927C113.913 32.5338 114.08 32.4289 114.314 32.3627C115.703 31.9579 115.966 31.9542 116.422 32.3241C116.879 32.6902 116.886 32.7252 116.57 33.1502C116.249 33.5826 116.257 33.5826 116.864 33.3361C117.399 33.1208 117.502 33.1392 117.591 33.4777C117.659 33.7353 117.845 33.8457 118.134 33.7924C118.376 33.7501 118.855 33.9138 119.193 34.1567C119.534 34.3977 120.047 34.7087 120.336 34.8504C121.274 35.3012 121.366 36.3261 120.535 37.0455C120.148 37.3785 119.964 37.4209 119.197 37.3399C118.708 37.2884 118.181 37.1706 118.027 37.0823C117.828 36.9682 117.839 37.0216 118.064 37.2571C118.237 37.4411 118.382 37.8827 118.364 38.2341C118.345 38.9333 118.844 39.5774 119.328 39.4817C119.583 39.432 119.576 39.4025 119.295 39.2793C119.114 39.202 118.967 38.9205 118.967 38.6555C118.967 38.1035 119.096 38.0446 119.611 38.3611C120.134 38.6813 120.452 38.5764 120.332 38.1201C120.191 37.5717 121.17 36.3868 121.731 36.431C122.13 36.4622 122.141 36.4254 122.032 35.4318C121.97 34.8633 121.836 34.3021 121.734 34.1843C121.6 34.0297 121.648 33.9543 121.904 33.912C123.015 33.7225 123.657 34.3536 122.997 34.9792C122.82 35.1485 122.724 35.3785 122.798 35.4889C123.006 35.8017 123.435 35.6453 123.56 35.2092C123.67 34.8302 124.982 33.5569 125.326 33.4943C125.418 33.4777 125.598 33.314 125.727 33.1281C125.867 32.935 126.068 32.7945 126.298 32.7289C126.552 32.6847 126.607 32.7841 126.529 33.1318C126.445 33.509 126.474 33.5421 126.68 33.3048C126.864 33.1194 127.097 32.9915 127.352 32.9368C127.584 32.8963 127.828 32.7583 127.898 32.6295C127.966 32.5007 128.211 32.4087 128.445 32.4271C128.675 32.4455 128.918 32.3977 128.978 32.3204C129.159 32.0996 128.748 31.5053 128.456 31.5586C128.152 31.612 127.897 30.9753 128.081 30.6276C128.163 30.4712 128.344 30.4988 128.609 30.7012C128.829 30.8723 129.437 31.0821 129.95 31.1704C130.465 31.2569 131.214 31.5476 131.613 31.8144C132.316 32.2799 132.336 32.2817 132.208 31.8512C132.134 31.6065 131.943 31.3213 131.786 31.2201C131.597 31.0968 131.542 30.8631 131.621 30.5153C131.687 30.2283 131.643 29.8401 131.518 29.6524C131.326 29.3672 131.37 29.174 131.797 28.4564C132.075 27.9872 132.3 27.4149 132.3 27.1849C132.3 26.955 132.414 26.6293 132.548 26.4618C132.703 26.2573 132.827 26.031 132.916 25.7902C132.984 25.5878 133.163 25.4038 133.31 25.3762C133.718 25.3026 133.831 25.8362 133.468 26.1233C133.199 26.3367 133.229 26.3643 133.663 26.2925C134.112 26.2189 134.178 26.2852 134.178 26.8096C134.178 27.1408 134.096 27.5916 133.994 27.8124C133.862 28.0939 133.869 28.2485 134.022 28.3202C134.149 28.3791 134.188 28.3423 134.119 28.2374C134.053 28.1362 134.188 27.7719 134.418 27.4241C134.648 27.0782 134.809 26.6477 134.78 26.4673C134.751 26.2907 134.809 26.0717 134.912 25.9889C135.122 25.8141 135.439 26.3146 135.409 26.7746C135.382 27.2015 135.722 27.3266 135.956 26.977C136.351 26.3827 136.914 26.2815 137.446 26.701C137.728 26.9255 138.044 27.0893 138.158 27.069C138.27 27.0506 138.151 26.863 137.886 26.6532C137.569 26.403 137.356 25.9705 137.273 25.4093C137.13 24.4194 137.144 24.4065 138.751 23.9097C139.763 23.5969 140.039 23.3596 139.625 23.1664C139.327 23.0266 139.4 22.1231 139.715 22.0661C139.88 22.0366 139.949 21.9115 139.882 21.7441C139.809 21.5545 139.892 21.4441 140.149 21.3981C140.355 21.3613 140.572 21.1994 140.628 21.0393C140.683 20.8774 141.051 20.5775 141.446 20.3696C141.84 20.1635 142.245 19.8709 142.348 19.7201C142.635 19.3024 143.566 18.9712 143.866 19.1773C144.013 19.2803 144.271 19.2674 144.458 19.1478C144.641 19.0337 145.001 18.9215 145.259 18.9013C145.638 18.87 145.682 18.824 145.492 18.6529C145.136 18.3309 145.211 18.1377 145.722 18.0457C146.054 17.9868 146.155 17.8837 146.079 17.6887C145.947 17.352 146.668 15.972 147.167 15.6021C147.227 15.5582 147.294 15.524 147.366 15.5009C147.49 15.4609 147.623 15.4508 147.752 15.4715C148.138 15.5322 148.475 15.8358 148.387 16.2057C148.326 16.4578 148.389 16.581 148.562 16.5497C148.711 16.524 148.884 16.6289 148.942 16.7797C149.011 16.9545 149.303 17.0153 149.734 16.9417C150.764 16.7669 151.487 17.3925 151.596 18.5517C151.684 19.5029 151.581 19.698 150.197 21.1829C149.888 21.5159 149.886 21.5343 150.236 21.5417C150.438 21.5453 150.674 21.6373 150.751 21.7459C150.851 21.8876 150.944 21.8508 151.077 21.6171C151.235 21.3411 151.283 21.3521 151.377 21.6962C151.469 22.0348 151.568 22.0642 151.918 21.8618C152.499 21.5269 153.901 21.6557 153.772 22.0311C153.708 22.2188 153.894 22.3145 154.337 22.3218C155.143 22.3365 155.397 22.147 155.397 21.5343C155.397 20.8903 155.662 20.7266 156.321 20.9676C156.628 21.078 157.038 21.1424 157.234 21.1074C157.922 20.9841 158.227 21.5637 158.179 22.8996C158.141 23.9337 158.196 24.1747 158.503 24.355C158.844 24.5574 158.882 24.5206 159.028 23.895C159.241 22.9769 159.454 22.7542 159.703 23.1995C159.865 23.4884 160.034 23.5252 160.45 23.3651C160.766 23.2418 161.042 23.2363 161.121 23.3577C161.221 23.5068 161.337 23.4737 161.563 23.2161C161.734 23.0247 161.962 22.8665 162.064 22.8665C162.165 22.8701 162.273 22.7119 162.308 22.5169C162.343 22.32 162.282 22.1728 162.172 22.193C162.062 22.2114 161.97 22.0955 161.97 21.9354C161.97 21.7698 162.132 21.6134 162.33 21.5785C162.527 21.5417 162.722 21.4074 162.761 21.2804C162.871 20.9142 166.445 21.1976 166.664 21.5895C166.761 21.7606 166.792 21.9612 166.732 22.0348C166.673 22.1084 166.842 22.1875 167.112 22.2096C167.274 22.2243 167.355 22.2758 167.44 22.3292V9.28175C165.364 9.23943 164.275 9.18423 159.541 9.20815ZM145.833 15.0704C146.048 15.0317 146.171 15.098 146.109 15.2176C145.956 15.4991 145.446 15.5911 145.446 15.3353C145.446 15.2268 145.621 15.1072 145.833 15.0704ZM163.138 15.696C163.282 15.7089 163.497 15.8027 163.856 15.9904C164.319 16.2296 164.91 16.3952 165.169 16.3565C165.677 16.2829 166.507 16.4485 166.2 16.5645C166.097 16.6031 166.264 16.6436 166.573 16.6565C167.195 16.6859 167.311 17.0815 166.818 17.4955C166.419 17.8322 165.169 17.4826 165.169 17.0355C165.169 16.6049 164.882 16.719 164.314 17.3741C164.04 17.6869 163.593 17.9831 163.318 18.0309C163.042 18.0788 162.551 18.2241 162.225 18.3548C161.721 18.5553 161.583 18.5204 161.313 18.134C160.724 17.3005 161.331 15.7788 162.041 15.834C162.155 15.8449 162.262 15.8891 162.351 15.9609C162.658 16.1983 162.709 16.1909 162.855 15.8929C162.925 15.7493 162.995 15.6813 163.138 15.6941M160.658 16.5553C160.761 16.5369 160.849 16.7871 160.849 17.1128C160.849 17.4366 160.761 17.72 160.658 17.7384C160.555 17.7568 160.472 17.5065 160.472 17.1809C160.472 16.857 160.555 16.5737 160.658 16.5553ZM162.739 18.8185C162.93 18.8553 163.098 19.1202 162.984 19.3337C162.932 19.4293 163.046 19.4809 163.239 19.4441C163.681 19.3668 164.04 19.6704 164.04 20.1285C164.04 20.4009 163.9 20.4984 163.429 20.5665C163.118 20.6132 162.804 20.6317 162.49 20.6217C162.135 20.5849 162.036 20.2481 162.365 20.1893C162.49 20.1672 162.524 19.9445 162.448 19.6023C162.374 19.2656 162.411 18.9822 162.549 18.87C162.575 18.8482 162.606 18.8324 162.638 18.8238C162.671 18.8152 162.705 18.8122 162.739 18.8185ZM132.042 19.709C132.316 19.6336 132.513 19.7495 132.594 20.0715C132.773 20.7799 132.414 21.2969 131.201 22.0845C130.544 22.5113 129.836 23.1553 129.49 23.6485L128.528 25.0285C128.322 25.3229 127.895 26.1858 127.578 26.9513C126.929 28.5245 126.94 29.4095 127.615 30.0425C127.827 30.2449 127.937 30.4767 127.847 30.5521C127.633 30.7288 126.555 30.887 126.334 30.7729C126.241 30.7269 126.106 30.4565 126.036 30.1713C125.952 29.8217 125.786 29.6745 125.538 29.7186C125.264 29.7665 125.162 29.6505 125.162 29.2789C125.162 28.9937 125.247 28.8133 125.354 28.863C125.532 28.9495 125.617 28.6735 125.551 28.173C125.532 28.0313 125.668 27.6542 125.852 27.3321C126.036 27.0101 126.165 26.6477 126.141 26.5262C126.115 26.4066 126.276 25.9558 126.496 25.5234C126.723 25.0818 126.855 24.5758 126.798 24.3587C126.732 24.1066 126.804 23.9153 127.01 23.7993C127.183 23.7018 127.714 23.1314 128.189 22.5334C128.925 21.6098 129.157 21.4349 129.738 21.3485C130.268 21.2693 130.563 21.078 131.043 20.5021C131.418 20.0549 131.768 19.7845 132.042 19.7109M113.013 20.9289C113.339 20.8862 113.67 20.9669 113.94 21.1553L114.339 21.4754L113.9 22.0458C113.476 22.596 112.81 22.9474 113.053 22.4966C113.116 22.377 113.009 22.3071 112.814 22.3421C112.533 22.3918 112.459 22.2629 112.477 21.7128C112.488 21.0927 112.544 21.0136 113.013 20.9289ZM111.451 21.2638C111.69 21.2565 111.832 21.2785 111.832 21.3356C111.83 21.3895 111.81 21.4414 111.776 21.4831C111.742 21.5247 111.695 21.5538 111.642 21.5656C111.539 21.584 111.454 21.7275 111.454 21.8857C111.454 22.044 111.311 22.6917 111.134 23.3228C110.794 24.5427 110.409 24.861 110.214 24.0846C110.15 23.827 109.992 23.6337 109.859 23.6577C109.552 23.7129 109.338 22.9161 109.603 22.6972C109.728 22.5941 109.736 22.5169 109.622 22.4929C109.52 22.4709 109.377 22.2629 109.305 22.0329C109.176 21.6263 109.213 21.6061 110.501 21.3742V21.3779C110.882 21.3117 111.213 21.2712 111.451 21.2638ZM149.686 22.3163C149.699 22.2703 149.642 22.285 149.517 22.3568C149.327 22.4617 149.093 22.561 149 22.5776C148.904 22.596 148.827 22.7395 148.827 22.9014C148.827 23.2878 148.873 23.2713 149.408 22.6714C149.514 22.565 149.609 22.4457 149.686 22.3163ZM138.374 28.1234C138.323 28.2419 138.29 28.3671 138.276 28.495C138.206 28.863 138.23 28.9918 138.35 28.8465C138.456 28.6738 138.495 28.4683 138.46 28.2687C138.432 28.1381 138.405 28.0884 138.374 28.1234ZM134.28 28.7103C134.211 28.7931 134.182 29.1997 134.18 29.956C134.176 31.4354 134.447 32.1658 134.773 31.5641C134.865 31.3949 134.806 31.2881 134.618 31.2789C134.368 31.2679 134.337 31.0692 134.429 30.129C134.489 29.5052 134.456 28.8777 134.359 28.7342C134.327 28.6901 134.303 28.6845 134.28 28.7103ZM134.55 32.2468C134.447 32.2652 134.362 32.4492 134.362 32.659C134.362 32.8687 134.28 33.1134 134.176 33.1981C133.989 33.3526 133.91 33.9341 134.079 33.9028C134.129 33.8936 134.294 33.6029 134.452 33.2551C134.786 32.5228 134.815 32.1989 134.55 32.2468ZM124.275 32.3903C124.364 32.3756 124.459 32.4363 124.625 32.5614C124.956 32.819 124.956 32.8613 124.662 33.2514C124.342 33.682 124.007 33.831 123.786 33.6397C123.574 33.4557 123.644 33.0527 123.963 32.6645C124.102 32.4915 124.187 32.4032 124.275 32.3885M133.691 34.0886C133.598 34.0943 133.508 34.1187 133.426 34.1604C133.22 34.2524 133.049 34.3628 133.049 34.4033C133.049 34.4456 133.218 34.4474 133.426 34.4106C133.632 34.3738 133.799 34.2634 133.799 34.1677C133.799 34.1181 133.759 34.0905 133.691 34.0886ZM166.912 35.3748C166.809 35.3656 166.632 35.4189 166.342 35.5294C165.953 35.6766 165.204 35.8624 164.676 35.9452C163.723 36.0961 163.71 36.1089 162.722 37.5055C162.174 38.2783 161.467 39.1983 161.147 39.5498C160.718 40.0226 160.65 40.1772 160.882 40.1385C161.104 40.1269 161.321 40.2007 161.489 40.3446C161.651 40.4863 161.788 40.5066 161.788 40.3906C161.788 40.0778 162.457 40.0171 162.726 40.3078C163.033 40.6427 163.55 40.5507 163.407 40.1864C163.344 40.0245 163.407 39.892 163.554 39.8662C163.854 39.8129 164.036 40.3814 164.036 41.3787C164.036 41.7725 164.168 42.4459 164.325 42.882C164.641 43.7689 164.579 44.0025 164.108 43.6787C163.817 43.4781 163.8 43.5407 163.907 44.4809C163.973 45.0587 163.951 45.4709 163.858 45.4267C163.766 45.3826 163.633 45.4543 163.563 45.5849C163.357 45.9695 164.237 46.6558 164.658 46.4387C164.916 46.3081 164.984 46.332 164.884 46.5178C164.805 46.665 164.857 46.838 164.995 46.9042C165.184 46.9907 165.123 47.0901 164.755 47.3017C164.485 47.4581 164.205 47.7009 164.134 47.8371C164.056 47.9806 163.802 48.069 163.534 48.0469C163.114 48.0101 163.085 48.0469 163.221 48.4296C163.431 49.0221 163.386 49.8648 163.07 51.0571C162.849 51.8943 162.702 52.128 162.248 52.3506C161.897 52.5265 161.555 52.7187 161.223 52.9266C160.965 53.0922 160.669 53.2541 160.566 53.2946C159.964 53.5043 159.154 54.1759 158.98 54.6083C158.753 55.1714 158.406 55.1382 158.406 54.5531C158.406 54.3433 158.321 54.1851 158.218 54.2035C157.843 54.2697 158.043 53.8061 158.733 53.0204C159.234 52.4463 159.613 52.1814 160.051 52.1041C160.523 52.0176 160.718 51.8722 160.882 51.4637C161.02 51.1215 161.245 50.9062 161.526 50.8566C162.108 50.7517 162.373 50.1132 162.373 48.8141C162.373 47.9953 162.463 47.6366 162.746 47.309C163.066 46.941 163.136 46.5362 163.221 44.4754C163.289 42.8139 163.258 42.0798 163.116 42.1055C163.006 42.1239 162.912 42.4551 162.912 42.8378C162.912 43.8222 162.422 44.9538 161.129 46.9594C160.402 48.0892 159.81 48.5602 159.269 48.437C158.991 48.3762 158.404 49.0257 158.404 49.3974C158.404 49.517 158.188 49.8317 157.925 50.0966L157.441 50.5787L157.841 51.0792C158.111 51.4104 158.223 51.8023 158.183 52.2439C158.131 52.807 158.019 52.9578 157.421 53.2817L156.716 53.6626L156.691 52.9413C156.671 52.6165 156.671 52.2909 156.691 51.9661C156.709 51.8281 156.601 51.7894 156.452 51.8778C156.069 52.0985 155.9 51.7434 156.141 51.2301C156.315 50.8602 156.288 50.8069 155.955 50.8676C155.741 50.9044 155.357 51.1178 155.099 51.3423C154.52 51.8446 154.385 51.7471 154.635 51.0148L154.825 50.4499L154.089 51.1362C153.408 51.771 153.377 51.8446 153.651 52.1133C153.839 52.2973 154.023 52.3267 154.153 52.1887C154.402 51.9311 155.394 51.9201 155.394 52.1758C155.394 52.2733 155.239 52.4408 155.059 52.5438C154.813 52.7063 154.591 52.9012 154.398 53.1234C154.074 53.4969 154.08 53.5522 154.606 54.3967C155.005 55.0352 155.11 55.3719 154.983 55.6332C154.875 55.8614 154.882 55.9809 155.002 55.9589C155.478 55.8742 153.993 58.6453 153.101 59.5101C152.76 59.8394 151.971 60.3454 151.347 60.638C150.357 61.1035 150.21 61.236 150.175 61.6849C150.102 62.6215 149.325 63.26 149.066 62.5976C148.988 62.4007 149.099 62.1321 149.379 61.8469C149.618 61.6003 149.761 61.3574 149.701 61.3041C149.491 61.1201 148.725 61.5893 148.479 62.0511C148.258 62.4651 148.31 62.581 148.998 63.2397C149.653 63.8709 149.759 64.0935 149.759 64.8645C149.759 65.652 149.695 65.7992 149.241 66.0899C148.945 66.2827 148.687 66.5277 148.479 66.813C148.148 67.3393 147.693 67.3926 147.693 66.905C147.693 66.6842 147.57 66.537 147.408 66.5646C147.326 66.5763 147.243 66.5609 147.171 66.5207C147.099 66.4805 147.042 66.4177 147.009 66.342C146.95 66.1893 146.782 66.0844 146.641 66.112C146.495 66.1377 146.381 66.0218 146.381 65.8599C146.381 65.698 146.293 65.5839 146.19 65.6023C145.975 65.6391 145.938 67.4147 146.148 67.6815C146.221 67.779 146.508 67.963 146.779 68.0955C146.926 68.1781 147.054 68.2899 147.157 68.424C147.259 68.5582 147.332 68.7119 147.373 68.8757C147.428 69.1701 147.533 69.5969 147.607 69.827C147.713 70.1655 147.667 70.2594 147.367 70.3127C146.808 70.4121 146.057 69.7018 145.831 68.861C145.721 68.4488 145.5 68.0256 145.345 67.9189C145.156 67.7901 145.073 67.3853 145.091 66.6732C145.106 65.9556 145.021 65.5379 144.821 65.3649C144.636 65.1914 144.494 64.9772 144.407 64.7393C144.278 64.3382 144.03 64.2941 143.844 64.6418C143.779 64.7614 143.562 64.8902 143.362 64.9252C143.078 64.9767 142.999 64.8516 142.999 64.3695C142.972 63.9502 142.82 63.5486 142.563 63.2158C142.339 62.9491 142.148 62.6555 141.996 62.3418C141.899 62.0842 141.807 62.0622 141.623 62.2554C141.489 62.397 141.108 62.5792 140.777 62.6657C140.445 62.7503 140.184 62.9306 140.184 63.0686C140.184 63.2048 139.926 63.5029 139.617 63.7255C139.308 63.9482 139.056 64.2021 139.056 64.2941C139.056 64.3861 138.64 64.835 138.136 65.2877C137.235 66.0936 137.22 66.1414 137.238 67.0909C137.247 67.7496 137.36 68.1544 137.59 68.3549C138.234 68.9143 137.967 70.2152 137.181 70.3569C136.913 70.4047 136.787 69.4479 137.001 68.9898C137.328 68.2906 137.056 68.3108 136.541 69.0229C136.129 69.5933 136.044 69.6411 135.814 69.4221C135.347 68.9769 133.969 65.6262 133.939 64.8645C133.913 64.2021 133.866 64.1413 133.472 64.2904C133.026 64.4578 132.294 64.077 132.294 63.6721C132.29 63.5544 132.07 63.2766 131.801 63.0576C131.365 62.7006 131.139 62.6877 129.645 62.9233C128.64 63.0833 127.86 63.1128 127.694 62.9969C127.466 62.8386 127.413 62.8626 127.413 63.1257C127.413 63.3023 127.709 63.5415 128.071 63.6574C128.837 63.904 128.944 64.5149 128.351 65.2417C128.145 65.4956 127.978 65.7642 127.978 65.8415C127.978 66.1065 126.758 67.2951 126.425 67.3558C126.242 67.3871 125.95 67.6171 125.773 67.8655C125.597 68.1139 125.368 68.3347 125.26 68.3549C125.153 68.3734 124.848 68.5482 124.581 68.7414C124.086 69.0665 123.572 69.3621 123.043 69.6264C122.128 70.0919 122.016 70.2005 122.191 70.4636C122.371 70.7322 122.504 70.723 123.355 70.3624C123.884 70.1416 124.5 69.8637 124.724 69.7478C125.902 69.1461 124.623 72.6182 123.021 74.3736L122.069 75.4187L121.76 75.6708L121.296 76.2964C120.492 77.3746 120.277 77.9929 120.373 78.9662C120.422 79.4649 120.526 79.9653 120.603 80.0776C120.68 80.188 120.757 80.832 120.776 81.5073C120.803 82.6058 120.754 82.7824 120.327 83.2111C120.064 83.4742 119.758 83.7079 119.642 83.7318C119.528 83.7558 119.201 84.0686 118.914 84.4255C118.509 84.9315 118.424 85.1615 118.544 85.478C118.805 86.1753 118.597 87.1892 118.126 87.4983C117.874 87.6639 117.655 88.0319 117.587 88.3962C117.458 89.1046 116.111 91.3844 115.442 92.0339C115.04 92.424 112.902 93.252 111.924 93.3992C111.462 93.4691 111.029 92.9576 111.143 92.4755C111.234 92.0983 110.659 90.7717 110.205 90.3117C110.061 90.1645 109.828 89.4524 109.692 88.7293C109.447 87.4321 109.002 86.3557 108.635 86.1827C108.223 85.9895 108.562 84.0152 109.145 83.2001C109.227 83.089 109.283 82.9606 109.308 82.8248C109.332 82.6889 109.326 82.5492 109.289 82.4162C109.207 82.1496 109.145 81.8771 109.105 81.6011C109.009 80.8412 108.626 80.1162 107.971 79.4741C107.612 79.1226 107.316 78.7049 107.316 78.543C107.316 78.5283 107.289 78.5246 107.289 78.5136L107.327 78.5026L107.463 78.0241L107.592 77.2845C107.743 76.4215 107.491 76.186 106.724 76.4693C106.341 76.6092 106.15 76.554 105.918 76.2246C105.563 75.7186 105.025 75.7683 104.004 76.4049C103.603 76.6533 102.771 76.9753 102.153 77.1152C101.656 77.2276 101.16 77.3429 100.665 77.4611C100.19 77.5789 98.3057 76.5466 98.1125 76.0627C98.0297 75.8548 97.658 75.4316 97.2863 75.1243C96.9146 74.8189 96.6147 74.4159 96.6147 74.2264C96.6147 74.1988 96.6 74.1749 96.5963 74.1473V126.602C96.8116 126.528 97.1299 126.319 97.3618 126.087C97.6194 125.829 97.9634 125.594 98.1272 125.562C98.291 125.531 98.5412 125.259 98.6847 124.952C99.0656 124.136 99.993 123.215 100.396 123.253C100.584 123.272 100.788 123.196 100.845 123.088C100.902 122.977 101.218 122.845 101.548 122.786C101.879 122.727 102.446 122.468 102.806 122.215C103.349 121.833 103.45 121.66 103.406 121.222C103.364 120.799 103.436 120.675 103.741 120.622C103.951 120.585 104.118 120.67 104.118 120.812C104.118 120.953 104.238 121.216 104.383 121.395C104.615 121.684 104.906 121.678 106.917 121.327C108.168 121.106 109.193 120.867 109.193 120.788C109.193 120.708 109.412 120.453 109.681 120.219C110.141 119.822 110.185 119.812 110.35 120.094C110.464 120.287 110.77 120.355 111.219 120.28C111.602 120.217 112.212 120.221 112.575 120.291C113.432 120.456 114.58 120.326 114.73 120.042C114.796 119.921 115.039 119.787 115.272 119.744C115.508 119.704 115.903 119.404 116.154 119.08C116.5 118.633 116.731 118.497 117.123 118.51C117.407 118.517 117.639 118.464 117.62 118.386C117.504 117.606 117.911 117.511 118.669 118.147C119.41 118.767 120.156 118.754 120.24 118.118C120.273 117.866 120.529 117.496 120.814 117.29C121.106 117.079 121.367 116.829 121.591 116.546C121.933 116.053 123.398 115.078 123.633 115.188C123.734 115.236 123.895 115.115 123.992 114.914C124.101 114.694 124.286 114.578 124.48 114.62C124.704 114.67 124.778 114.602 124.737 114.368C124.671 113.961 125.598 113.297 126.402 113.176C127.104 113.069 128.027 113.488 127.902 113.856C127.775 114.221 129.576 114.39 131.571 114.197C133.041 114.055 133.212 114.081 133.396 114.473C133.577 114.855 133.647 114.866 133.981 114.589C134.322 114.305 134.44 114.335 135.03 114.887C135.59 115.407 135.753 115.468 136.062 115.238C136.265 115.089 136.379 114.881 136.315 114.782C136.149 114.532 136.924 113.577 137.498 113.323C137.757 113.209 137.919 113.069 137.856 113.014C137.794 112.958 137.836 112.778 137.954 112.609C138.114 112.375 138.109 112.191 137.925 111.864C137.735 111.514 137.735 111.358 137.925 111.083C138.132 110.784 138.199 110.784 138.471 111.069C138.87 111.488 139.378 111.464 140.149 110.99C140.721 110.64 140.789 110.636 141.043 110.971C141.283 111.29 141.448 111.297 142.302 111.045C143.492 110.692 143.754 110.452 143.754 109.714C143.754 109.24 143.833 109.135 144.232 109.065C144.493 109.017 144.749 109.096 144.806 109.24C144.972 109.663 145.472 109.663 145.846 109.243C146.116 108.938 146.247 108.899 146.46 109.047C146.672 109.194 146.766 109.161 146.891 108.903C147.104 108.463 147.774 108.541 148.063 109.036C148.186 109.247 148.571 109.512 148.919 109.621C149.529 109.816 149.57 109.801 150.341 109.122C151.288 108.285 151.476 108.235 151.796 108.717C151.932 108.92 152.159 109.012 152.306 108.927C152.387 108.886 152.478 108.87 152.568 108.88C152.658 108.89 152.743 108.925 152.814 108.982C153.117 109.245 153.853 109.321 154.198 109.122C154.341 109.037 154.459 108.714 154.459 108.399C154.459 107.724 154.685 107.628 155.055 108.149C155.268 108.445 155.399 108.471 155.67 108.263C156.082 107.95 157.267 108.058 157.41 108.425C157.576 108.848 157.997 108.592 158.119 107.994C158.229 107.435 158.268 107.409 159.131 107.343C159.992 107.276 160.043 107.245 160.273 106.621C160.409 106.253 160.564 106.071 160.678 106.069C160.783 106.075 160.851 106.263 160.785 106.64C160.715 107.034 160.796 107.159 161.188 107.247C161.745 107.368 163.013 107.437 164.115 107.4C165.042 107.37 165.21 107.449 165.076 107.841C165.002 108.053 165.151 108.191 165.532 108.274C165.841 108.34 166.095 108.465 166.095 108.55C166.095 108.634 166.599 108.616 167.214 108.507C167.317 108.489 167.348 108.498 167.436 108.485V83.2424C167.114 83.9968 166.855 84.7273 166.855 84.9278C166.855 85.1965 166.735 85.3621 166.505 85.4026C166.312 85.4375 165.939 85.6786 165.675 85.9417C165.142 86.479 165.098 86.4992 164.899 86.3281C164.822 86.26 164.382 86.2618 163.922 86.3299C163.004 86.4679 162.404 86.1533 162.312 85.489C162.27 85.1817 162.054 85.0621 161.471 85.018C160.706 84.9628 160.374 84.8266 160.374 84.5617C160.373 84.2305 159.76 83.73 159.25 83.638C158.499 83.5055 155.962 84.4899 155.962 84.9149C155.962 84.9959 155.576 85.191 155.103 85.3418C154.63 85.4946 154.008 85.8037 153.723 86.0318C153.27 86.3925 153.13 86.4256 152.663 86.2729C152.162 86.111 152.124 86.0116 152.105 84.9186C152.093 84.1698 151.947 83.4724 151.706 83.0032C151.432 82.4659 151.34 81.9544 151.379 81.1411C151.439 79.877 151.544 79.5808 151.901 79.6599C152.036 79.6912 152.253 79.5569 152.385 79.3655C152.518 79.1741 152.757 78.9938 152.913 78.9662C153.07 78.9386 153.52 78.7565 153.92 78.5614C154.49 78.2799 154.711 78.0278 154.959 77.4004C155.132 76.9588 155.342 76.6276 155.423 76.6662C155.504 76.7049 155.8 76.427 156.08 76.048C156.58 75.3709 157.327 75.036 157.557 75.3838C157.747 75.6726 157.916 75.5494 158.255 74.8667C158.43 74.5098 158.711 74.1951 158.877 74.1657C159.061 74.1326 159.12 74.0295 159.042 73.9099C158.947 73.7664 159.066 73.7186 159.454 73.7517C159.835 73.7775 160.216 73.7695 160.595 73.7278C161.392 73.6284 161.486 73.7572 161.155 74.4895C160.875 75.1077 160.875 75.1114 161.712 75.4923C162.172 75.7021 162.621 75.8603 162.706 75.8438C162.895 75.8106 163.099 74.795 163.099 73.8933C163.099 73.5345 163.241 73.0672 163.414 72.8537C163.466 72.7821 163.526 72.7172 163.594 72.6605C163.631 72.6348 163.662 72.6237 163.692 72.6348C163.78 72.6642 163.85 72.874 163.983 73.3285C164.13 73.8326 164.347 74.1712 164.503 74.1436C164.743 74.1013 165.162 75.1151 165.162 75.7389C165.162 75.8677 165.416 76.0848 165.725 76.2209C166.036 76.3571 166.29 76.5282 166.29 76.6018C166.29 76.6754 166.502 76.9073 166.757 77.117C167.015 77.3249 167.227 77.577 167.228 77.6801C167.228 77.7242 167.37 77.8567 167.436 77.9505V70.057C167.194 70.2213 166.917 70.3282 166.627 70.3698C165.652 70.4654 165.596 70.8666 166.483 71.4554C166.89 71.7258 167.179 72.0257 167.127 72.1251C166.951 72.4545 165.832 72.2815 165.208 71.8252C164.476 71.2916 164.306 71.2953 164.04 71.8657C163.804 72.368 163.061 72.5649 162.733 72.2061C162.582 72.0442 162.321 72.0313 161.96 72.1693C161.353 72.4066 161.305 72.333 161.644 71.7038C161.817 71.3726 161.817 71.2364 161.644 71.0855C161.401 70.8757 160.157 70.5979 159.752 70.666C159.469 70.712 159.173 70.4581 158.81 69.8601C158.601 69.5105 158.601 69.4093 158.81 69.2308C158.921 69.2087 159.099 69.1425 159.292 69.091H159.296C159.476 69.0336 159.665 69.0106 159.854 69.0229L159.872 69.0192V69.0229C160.003 69.0284 160.192 69.2382 160.292 69.4976L160.476 69.9686L161 69.4865L161.521 68.9971L163.017 69.2308C163.881 69.3651 164.698 69.6356 164.952 69.8674C165.306 70.1894 165.504 70.2225 165.959 70.0367C166.272 69.9079 166.634 69.7699 166.761 69.7276C166.89 69.6853 167.138 69.4737 167.313 69.2566C167.363 69.1958 167.392 69.2013 167.436 69.1553V35.7483C167.173 35.8182 167.044 35.7925 167.044 35.5864C167.044 35.4521 167.015 35.384 166.912 35.3748ZM116.601 42.5306C116.426 42.5618 116.422 42.6741 116.582 43.0016C116.766 43.3806 117.276 43.3935 117.276 43.02C117.276 42.7992 116.846 42.4864 116.601 42.5306ZM166.974 44.8029C167.013 44.8121 167.043 44.8471 167.043 44.9097C167.043 45.0164 166.912 45.1783 166.748 45.274C166.564 45.3789 166.48 45.3531 166.526 45.2004C166.595 44.9686 166.851 44.7753 166.974 44.8029ZM166.134 45.3053C166.432 45.2519 166.218 45.7211 165.764 46.1185C165.525 46.3265 165.353 46.3927 165.353 46.2731C165.353 46.0082 165.885 45.3494 166.134 45.3053ZM113.5 45.7432C113.474 45.7309 113.444 45.7269 113.416 45.7314C113.387 45.736 113.36 45.7491 113.338 45.769C113.221 45.8665 113.237 46.0486 113.384 46.2694C113.635 46.6393 113.815 46.3651 113.633 45.8978C113.61 45.8317 113.563 45.7752 113.5 45.7432ZM111.548 46.1922C111.885 46.1314 111.92 46.5473 111.605 46.9318C111.285 47.3256 111.018 47.3274 111.153 46.9355C111.215 46.7515 111.268 46.5215 111.268 46.4203C111.268 46.3228 111.394 46.2179 111.548 46.1922ZM128.899 51.8446C128.778 51.8672 128.664 51.9204 128.568 51.9992C128.088 52.3561 128.04 53.0296 128.495 53.0554C128.892 53.0774 128.831 53.1326 129.07 52.6027C129.291 52.1225 129.183 51.8115 128.903 51.8446H128.899ZM125.692 51.9458C125.53 51.9068 125.361 51.9093 125.201 51.9532C124.627 52.082 123.751 52.7757 123.584 53.2357C123.425 53.6699 123.804 54.6175 124.417 55.3204C124.741 55.6921 124.921 56.0122 124.813 56.0306C124.704 56.049 124.518 56.2717 124.399 56.5237C124.215 56.9175 124.261 57.0316 124.723 57.3462C125.017 57.5486 125.367 57.648 125.506 57.5726C125.64 57.4983 125.782 57.4414 125.93 57.4033C126.187 57.3591 126.138 56.5256 125.856 56.1318C125.718 55.9423 125.591 55.5081 125.571 55.1658C125.549 54.7831 125.317 54.3286 124.971 53.9937C124.603 53.6349 124.485 53.4031 124.64 53.3222C124.831 53.2004 125.001 53.0489 125.144 52.8732C125.235 52.7753 125.345 52.6966 125.467 52.6416C125.589 52.5866 125.72 52.5565 125.854 52.553C126.274 52.5622 126.287 52.5383 126.034 52.1924C125.952 52.0734 125.831 51.9863 125.692 51.9458ZM119.232 53.1602C119.116 53.168 119.003 53.199 118.899 53.2515C118.795 53.304 118.703 53.3768 118.628 53.4657C118.343 53.8153 118.36 53.8337 118.822 53.7527C119.098 53.703 119.374 53.565 119.436 53.4436C119.541 53.2485 119.418 53.1547 119.232 53.1602ZM117.087 53.8134C116.884 53.8189 116.636 53.9054 116.525 54.0618C116.415 54.2201 116.126 54.7978 115.881 55.3443C115.495 56.2165 115.473 56.3729 115.714 56.5808C116.06 56.8826 116.702 56.7611 117.173 56.3048C117.644 55.8466 118.485 55.7013 118.844 56.0141C119.162 56.2901 120.417 56.1226 120.846 55.7473C121.079 55.5412 121.015 55.4198 120.468 55.0297C119.42 54.2771 118.831 54.1281 118.308 54.4722C117.953 54.704 117.8 54.7077 117.558 54.4961C117.39 54.3507 117.3 54.1428 117.355 54.0361C117.44 53.8797 117.287 53.8079 117.087 53.8153M125.97 54.9119C125.937 54.934 125.915 54.98 125.915 55.037C125.915 55.153 126 55.2284 126.103 55.21C126.206 55.1916 126.29 55.1401 126.29 55.0922C126.29 55.0444 126.206 54.9634 126.103 54.9156C126.051 54.8917 126.003 54.8898 125.97 54.9119ZM109.252 55.4731C109.221 55.4823 109.18 55.5743 109.108 55.7638C109.007 56.0306 109.044 56.2183 109.222 56.3305C109.37 56.4244 109.638 56.7206 109.822 56.9893C110.006 57.2579 110.238 57.4125 110.337 57.3297C110.437 57.2487 110.567 57.3058 110.628 57.4585C110.689 57.6149 110.893 57.7658 111.081 57.7934C111.425 57.8485 111.734 58.338 111.559 58.5514C111.508 58.6158 111.326 58.5698 111.154 58.4521C110.873 58.2589 110.854 58.2736 110.97 58.6379C111.062 58.925 110.985 59.1899 110.713 59.5211C110.501 59.7824 110.33 60.0786 110.33 60.1798C110.33 60.5515 109.953 60.6582 109.384 60.454C108.704 60.2056 108.74 59.7898 109.452 59.6481C110.304 59.4825 110.49 59.0482 109.909 58.5882C109.633 58.3674 109.327 58.2037 109.23 58.2202C109.027 58.257 107.979 57.2322 107.839 56.8642C107.765 56.6673 107.585 56.7353 107.011 57.1714C106.477 57.5762 106.186 57.6921 105.953 57.5965C105.552 57.4327 105.259 57.659 105.259 58.1319C105.259 58.3288 104.965 58.7759 104.602 59.131C104.186 59.5358 103.943 59.9443 103.943 60.2314C103.943 60.8993 103.158 61.8248 102.416 62.0309C102.068 62.1284 101.783 62.2958 101.783 62.4044C101.783 62.7577 103.022 62.4578 103.66 61.9481C104.271 61.4605 107.668 60.3914 108.216 60.5129C108.501 60.5791 108.531 61.8156 108.253 62.0456C107.951 62.2958 108.646 62.6399 109.248 62.5424C109.569 62.5048 109.892 62.5932 110.15 62.789C110.775 63.3336 111.832 63.49 111.832 63.0373C111.832 62.3694 112.963 61.6113 113.434 61.9665C113.534 62.0401 114.097 62.1726 114.682 62.2535C115.488 62.3676 115.905 62.3234 116.4 62.0916C116.765 61.9205 117.125 61.8524 117.215 61.9297C117.493 62.1726 118.237 61.7015 118.419 61.1679C118.514 60.8882 118.592 60.3031 118.592 59.8707C118.592 59.1421 118.559 59.0997 118.168 59.3077C117.918 59.4355 117.648 59.5213 117.37 59.5616C117.164 59.58 116.772 59.6352 116.496 59.6849C115.76 59.8137 115.024 59.6039 115.024 59.2617C115.024 59.0961 114.932 58.9783 114.814 58.9986C114.704 59.0188 114.649 58.8532 114.704 58.625C114.757 58.3987 114.731 58.2239 114.647 58.2386C114.562 58.2552 114.542 58.0804 114.595 57.8559C114.672 57.5376 114.601 57.4603 114.282 57.5173C114.056 57.5578 113.927 57.6664 113.992 57.7658C114.056 57.8633 113.977 58.0197 113.815 58.1153C113.467 58.3159 113.423 58.7851 113.747 58.8403C114.052 58.8918 113.528 60.1173 113.177 60.1761C112.871 60.2277 112.389 59.6646 112.389 59.2451C112.387 59.0777 112.222 58.7446 112.019 58.5091C111.817 58.2754 111.649 57.889 111.649 57.6498C111.646 57.361 111.362 57.0647 110.797 56.7593C110.332 56.5072 109.951 56.176 109.951 56.0233C109.951 55.8632 109.842 55.808 109.69 55.8963C109.533 55.9883 109.39 55.9092 109.34 55.7068C109.303 55.5467 109.281 55.4713 109.252 55.4731ZM107.563 57.3775C107.977 57.2174 108.004 59.5303 107.592 59.7695C107.436 59.8615 107.266 59.8247 107.215 59.6922C107.016 59.1862 107.272 57.4897 107.563 57.3775ZM154.784 58.2184C154.853 58.2 154.891 58.2626 154.943 58.395C155.073 58.7299 154.696 60.1467 154.464 60.1872C154.38 60.2019 154.262 60.086 154.199 59.9259C153.995 59.4034 154.08 58.947 154.457 58.5202C154.623 58.3325 154.718 58.235 154.784 58.2184ZM105.187 59.4328C105.252 59.4254 105.305 59.4346 105.331 59.4751C105.469 59.6867 105.187 60.0731 104.928 60.0271C104.799 60.0014 104.694 59.9094 104.694 59.821C104.694 59.6554 104.992 59.4567 105.187 59.4328ZM154.472 61.4237C154.529 61.4182 154.6 61.4237 154.694 61.4384C155.202 61.512 155.14 61.4568 155.287 61.9352C155.324 62.0547 155.329 62.1822 155.3 62.304C155.271 62.4259 155.209 62.5375 155.121 62.627C154.698 63.0723 154.772 63.2379 155.399 63.271C155.83 63.2931 155.96 63.4072 155.96 63.7641C155.96 64.2057 155.936 64.2205 155.452 64.0438C155.175 63.9426 154.902 63.9187 154.845 63.9941C154.79 64.0677 154.849 64.1506 154.98 64.1782C155.095 64.1953 155.205 64.2365 155.303 64.2991C155.401 64.3617 155.485 64.4444 155.549 64.5416C155.613 64.6388 155.656 64.7485 155.675 64.8634C155.694 64.9784 155.688 65.096 155.658 65.2085C155.53 65.7716 155.791 65.8102 156.21 65.295C156.656 64.7504 157.029 65.3686 156.93 66.4726C156.897 66.848 156.584 67.0596 156.102 67.0338C155.922 67.0246 155.776 66.8756 155.776 66.71C155.776 66.4855 155.653 66.4634 155.305 66.618C154.956 66.7707 154.834 66.7431 154.834 66.5168C154.834 66.3475 154.963 66.1414 155.116 66.0531C155.362 65.9096 155.362 65.8452 155.116 65.5195C154.958 65.3104 154.861 65.0623 154.834 64.8019C154.834 64.6087 154.761 64.4652 154.667 64.4818C154.409 64.5277 153.852 62.7742 154.083 62.6528C154.188 62.5976 154.275 62.2903 154.275 61.9665C154.275 61.5782 154.301 61.4439 154.472 61.4237ZM124.314 61.661C124.253 61.6583 124.193 61.6743 124.141 61.707C124.079 61.7494 124.036 61.8229 124.036 61.9278C124.036 62.075 124.204 62.3602 124.41 62.5553C124.616 62.7522 124.787 62.9969 124.787 63.1073C124.787 63.2177 124.916 63.2305 125.072 63.1422C125.276 63.0226 125.352 63.1183 125.352 63.4937C125.352 64.2076 126.062 64.0567 126.739 63.1956L127.256 62.5332L126.741 62.7282C126.115 62.9674 125.127 62.6178 124.877 62.0658C124.828 61.9542 124.75 61.8578 124.651 61.7866C124.552 61.7154 124.436 61.6721 124.314 61.661ZM118.18 63.7494C118.164 63.7491 118.148 63.7522 118.134 63.7586C118.12 63.765 118.107 63.7744 118.097 63.7862C117.973 63.9353 118.415 64.8718 119.293 66.3328C119.422 66.5444 119.525 66.9142 119.526 67.1516C119.526 67.3908 119.615 67.6208 119.72 67.6705C119.824 67.7183 120.031 68.0348 120.174 68.3697C120.318 68.7064 120.603 69.0063 120.809 69.0394C121.017 69.0707 121.232 69.2179 121.291 69.3651C121.477 69.8656 121.628 69.5988 121.495 68.9787C121.33 68.1967 120.538 66.9013 120.18 66.8222C120.031 66.7873 119.907 66.5389 119.907 66.2647C119.893 65.9594 119.765 65.6705 119.548 65.4551C119.346 65.2745 119.185 65.0515 119.077 64.8019C118.916 64.3235 118.408 63.7531 118.18 63.7494ZM153.977 64.8056C154.266 64.7541 154.032 65.4882 153.605 65.9814C153.035 66.6382 152.67 66.7689 152.948 66.2187C153.215 65.6906 153.842 64.8295 153.977 64.8056ZM97.9303 66.7321C98.0334 66.7137 98.1217 66.7836 98.1217 66.8866C98.1217 66.9878 98.0352 67.1387 97.9322 67.2234C97.8273 67.3098 97.7445 67.2418 97.7445 67.0725C97.7445 66.905 97.8273 66.7505 97.9303 66.7321ZM152.784 66.7817L153.417 67.2031L154.058 67.6226L153.647 68.0642C153.255 68.4893 153.254 68.5242 153.557 69.0247C153.756 69.3504 153.8 69.5583 153.668 69.5822C153.592 69.5951 153.561 69.6338 153.561 69.6705C153.555 69.6779 153.198 70.0901 153.169 70.1177C153.097 70.3338 153.045 70.5562 153.014 70.7819C152.981 70.8426 152.948 70.8849 152.917 70.9475C152.457 71.8988 152.461 71.8951 151.077 71.9466C150.819 71.9558 150.46 71.9742 150.28 71.989C150.237 71.9929 150.194 71.9876 150.153 71.9736C150.112 71.9595 150.074 71.937 150.043 71.9075C150.011 71.878 149.986 71.8421 149.969 71.8022C149.952 71.7624 149.944 71.7194 149.945 71.6761C149.8 71.1849 149.605 70.7561 149.504 70.1066C149.518 70.0772 149.524 70.0588 149.542 70.0275C149.667 69.7166 149.862 69.5252 150.013 69.5602C150.155 69.5914 150.378 69.4626 150.51 69.2731C150.643 69.0817 150.863 68.9014 151.001 68.8775C151.141 68.8518 151.347 68.6383 151.458 68.4028C151.568 68.1673 151.771 67.9538 151.912 67.9281C152.05 67.9042 152.304 67.6337 152.475 67.3319L152.784 66.7817ZM97.1281 66.9547C97.2017 66.9602 97.2826 66.9841 97.3691 67.0265C97.5918 67.135 97.601 67.2197 97.4151 67.446C97.2458 67.6558 97.1814 67.6723 97.1814 67.5049C97.1814 67.3724 97.0526 67.3522 96.876 67.4534C96.6699 67.5748 96.5963 67.538 96.6552 67.3503C96.7104 67.1645 96.8042 67.043 96.9275 66.986C96.9911 66.9579 97.059 66.9471 97.1281 66.9547ZM154.641 67.0467C154.751 67.0283 154.838 67.1019 154.838 67.2105C154.838 67.3172 154.801 67.4129 154.755 67.4221C154.711 67.4294 154.623 67.3577 154.558 67.2602C154.496 67.1626 154.532 67.0651 154.641 67.0467ZM157.405 68.2077C157.533 68.171 157.681 68.2814 157.808 68.5482L158.023 69.0082C157.894 69.1848 157.756 69.3338 157.655 69.505C157.636 69.4884 157.169 69.5602 157.029 69.0045C157.08 68.924 157.114 68.8338 157.129 68.7395C157.171 68.4249 157.276 68.2445 157.405 68.2077ZM166.86 68.4083C166.962 68.3899 167.046 68.4672 167.046 68.5739C167.046 68.6279 167.027 68.6801 166.994 68.7222C166.96 68.7643 166.913 68.7937 166.86 68.8058C166.756 68.8242 166.673 68.7505 166.673 68.6438C166.673 68.5353 166.757 68.4267 166.86 68.4083ZM165.462 68.4653C165.622 68.4377 165.705 68.5114 165.64 68.631C165.578 68.7505 165.444 68.8646 165.346 68.883C165.249 68.9014 165.171 68.8223 165.171 68.7137C165.171 68.6052 165.3 68.493 165.462 68.4653ZM156.365 68.6346C156.477 68.6622 156.481 68.8131 156.319 69.0486C156.271 69.1149 156.258 69.1646 156.24 69.2032L155.716 69.389C155.274 69.562 154.737 69.6503 154.464 70.0183C154.464 70.1177 154.632 70.1195 154.838 70.0257C154.899 69.9981 154.902 69.9815 154.954 69.9521L155.138 69.8969L155.723 69.8785L155.69 69.9282C155.629 69.9797 155.552 70.022 155.5 70.079C155.224 70.3789 155.095 70.6678 155.184 70.7764C155.267 70.8794 155.324 71.1389 155.324 71.3541C155.309 71.8601 154.711 72.0975 154.595 71.6467C154.54 71.4296 154.505 71.5087 154.486 71.8657C154.47 72.2852 154.385 72.425 154.137 72.4177C153.956 72.414 153.806 72.2337 153.806 72.0202C153.81 71.8143 153.762 71.6107 153.668 71.4277C153.59 71.3155 153.609 70.9696 153.714 70.6641C153.795 70.4268 153.802 70.3513 153.824 70.2446C153.876 70.0938 154.1 69.4534 154.1 69.4166L154.076 69.4295C154.185 69.2922 154.328 69.1851 154.49 69.1184C154.653 69.0518 154.829 69.0277 155.003 69.0486C155.316 69.0633 155.732 68.9548 155.931 68.8076C156.018 68.74 156.114 68.6866 156.218 68.6493C156.265 68.6314 156.316 68.6263 156.365 68.6346ZM144.166 69.2105H144.173C144.495 69.2105 144.968 69.3633 145.443 69.6522C146.124 70.068 146.626 70.3274 147.062 70.4986C147.419 70.9806 147.467 71.3486 148.011 71.3008C148.3 71.1333 148.827 71.4572 148.827 71.8086C148.827 71.9209 148.952 71.9411 149.106 71.851C149.263 71.7608 149.388 71.7902 149.388 71.9246C149.388 72.0791 149.228 72.1509 148.92 72.1233C148.499 72.0883 148.449 72.1472 148.449 72.6605C148.449 73.3045 148.843 73.426 150.317 73.2346C150.777 73.1757 151.182 73.2217 151.224 73.3395C151.263 73.4554 151.456 73.5217 151.655 73.4867C151.883 73.4462 152.017 73.5603 152.017 73.7995C152.017 74.1252 151.916 74.1767 151.22 74.208C150.781 74.2282 150.275 74.1951 150.102 74.1344C149.837 74.0683 149.561 74.0595 149.292 74.1086C148.99 74.1539 148.681 74.13 148.389 74.0387C147.796 73.8142 146.111 72.3901 145.818 71.8675L145.57 71.4241L145.323 71.0064V70.9917C145.32 70.9825 145.29 70.9733 145.29 70.9641V70.953C145.2 70.8187 144.953 70.6605 144.676 70.5887C144.1 70.4415 143.759 70.0349 143.759 69.4939C143.759 69.3835 143.814 69.3062 143.906 69.2602C143.987 69.2236 144.075 69.206 144.164 69.2087M158.56 70.2502C158.704 70.2925 158.781 70.379 158.781 70.5114C158.781 70.723 156.797 71.2106 156.61 71.045C156.389 70.8537 156.606 70.666 157.342 70.4194C157.563 70.344 157.762 70.2943 157.938 70.2612C158.142 70.212 158.355 70.2083 158.56 70.2502ZM156.958 72.6219H156.961C157.145 72.6035 157.274 72.6955 157.274 72.92C157.27 73.0598 156.946 73.3874 156.555 73.6468C155.684 74.2209 155.589 74.2448 155.589 73.8676C155.589 73.7057 155.66 73.5603 155.743 73.5456C155.826 73.5309 156.085 73.299 156.317 73.0304C156.532 72.7838 156.77 72.644 156.958 72.6219ZM155.232 73.196C155.866 73.1923 155.456 73.4977 154.1 73.7977C153.048 74.0295 152.755 74.0369 152.818 73.8289C152.873 73.6431 153.314 73.4849 154.247 73.3138C154.694 73.2346 155.02 73.1978 155.232 73.196ZM117.58 76.416C117.298 76.4675 117.046 76.9919 117.228 77.1502C117.361 77.2661 117.843 76.7914 117.843 76.5466C117.843 76.451 117.723 76.3902 117.58 76.416ZM124.139 80.3793C124.296 80.3683 124.482 80.4622 124.596 80.6664C124.835 81.0951 124.848 81.8513 124.621 82.488C124.526 82.7548 124.253 83.7484 124.016 84.696C123.668 86.0834 123.495 86.4624 123.14 86.6685C122.489 87.0438 122.196 87.0549 122.009 86.7053C121.641 86.019 121.595 85.3382 121.874 84.7199C122.027 84.3758 122.106 83.9655 122.044 83.8073C121.819 83.2369 122.154 82.5009 122.824 82.0905C123.182 81.8679 123.477 81.5496 123.477 81.3821C123.477 81.2129 123.558 81.062 123.661 81.0436C123.764 81.0252 123.852 80.8762 123.852 80.7124C123.852 80.5008 123.981 80.3904 124.139 80.3793ZM121.918 80.4769C121.953 80.5026 121.974 80.5615 121.974 80.6443C121.974 80.9902 121.86 81.062 121.698 80.8173C121.641 80.7271 121.677 80.5817 121.782 80.4934C121.834 80.4511 121.883 80.4511 121.918 80.4769ZM122.378 80.7179H122.382C122.454 80.7248 122.522 80.7552 122.575 80.8044C122.859 81.0509 122.7 81.246 122.349 81.0804C122.196 81.0123 122.139 80.878 122.216 80.7841C122.253 80.7345 122.314 80.7161 122.378 80.7179ZM126.855 83.8202C126.879 83.8151 126.903 83.8155 126.927 83.8213C126.95 83.8272 126.972 83.8384 126.991 83.8541C127.009 83.8697 127.024 83.8894 127.033 83.9116C127.043 83.9338 127.048 83.9579 127.046 83.9821C127.045 84.0363 127.025 84.0884 126.99 84.13C126.956 84.1717 126.908 84.2006 126.855 84.2121C126.752 84.2305 126.669 84.1569 126.669 84.0502C126.67 83.9965 126.689 83.9447 126.722 83.903C126.756 83.8613 126.803 83.8321 126.855 83.8202ZM161.234 84.3777C161.18 84.3891 161.131 84.4183 161.095 84.4607C161.059 84.503 161.039 84.556 161.037 84.6114C161.037 84.7181 161.074 84.8027 161.118 84.7953C161.164 84.7861 161.256 84.6758 161.32 84.5562C161.383 84.4366 161.342 84.3574 161.234 84.3777ZM165.736 87.0291C166.089 87.0015 166.106 87.1211 166.106 87.5646C166.106 88.1718 165.631 88.9078 165.19 88.9869C165.065 89.0108 164.836 88.744 164.687 88.3944C164.259 87.3953 164.316 87.2609 165.258 87.0972C165.416 87.0676 165.576 87.0449 165.736 87.0291ZM96.6 132.38V136.674C98.7854 135.599 101.059 134.712 103.395 134.025C111.517 131.633 121.709 130.363 131.854 129.623C143.696 128.778 155.573 128.522 167.44 128.854V124.07C144.836 123.56 115.427 124.374 96.6 132.38ZM24.4591 9.20815C19.7248 9.18607 18.6355 9.24127 16.56 9.28359V128.854C28.4273 128.522 40.3038 128.778 52.1456 129.623C62.2914 130.363 72.4831 131.633 80.6049 134.023C82.9414 134.711 85.2148 135.598 87.4 136.674V19.5011C87.3963 19.1221 87.3264 18.6823 85.8231 17.6041C84.318 16.524 81.593 15.3041 78.1282 14.2921C71.197 12.2754 61.3879 10.9617 51.5586 10.2109C41.7294 9.46023 31.8651 9.24127 24.4591 9.20815ZM68.529 14.132C69.587 14.1081 70.8087 14.1338 72.2163 14.2221C75.6038 14.4319 77.9865 15.615 79.902 16.1541C84.3566 17.4053 85.5692 18.3861 85.8765 18.6069C86.4101 18.9877 86.5186 19.4293 86.1157 19.5655C85.9795 19.6133 86.0734 19.6704 86.3218 19.6943C86.7008 19.7311 86.7707 19.8544 86.7707 20.4432C86.7707 20.9308 86.6824 21.135 86.4726 21.1221C86.2647 21.1093 86.1672 21.3153 86.1672 21.7901C86.1672 22.1654 86.0568 22.5113 85.9188 22.5592C85.7201 22.6273 85.7201 22.6475 85.9188 22.6733C86.2868 22.7193 86.2408 24.0422 85.8691 24.1618C85.4459 24.298 85.4974 24.5979 85.9703 24.7506C86.3862 24.8868 86.515 25.4186 86.1746 25.6062C86.066 25.667 85.8047 25.6099 85.5894 25.4811C85.3134 25.3155 85.1534 25.3081 85.0614 25.4517C84.9878 25.5658 85.1166 25.7185 85.3484 25.7939C85.6189 25.8822 85.7679 26.092 85.7679 26.3864C85.7679 26.9844 84.8773 27.1905 84.3769 26.7065C84.0641 26.4029 83.9978 26.4066 83.6666 26.7525C83.3078 27.1279 83.3115 27.1353 83.8856 27.058C84.6897 26.9513 85.2454 27.4113 85.0209 28.0037L84.8516 28.449L84.2886 27.897C83.398 27.0138 83.4219 27.4407 84.3162 28.392C84.7596 28.863 85.1037 29.2457 85.0779 29.2439C85.054 29.2421 85.0963 29.6616 85.1718 30.1749L85.3116 31.1041L84.5388 30.9533C84.1027 30.8686 83.8157 30.8833 83.8764 30.9901C83.939 31.0931 84.2131 31.1925 84.4836 31.2109C84.7504 31.2256 84.9657 31.3525 84.9602 31.4887C84.9417 31.9671 83.0686 33.2551 81.9665 33.5458C80.3859 33.9617 80.2994 34.0113 79.9222 34.7749C79.4954 35.6361 78.7262 36.2046 77.8412 36.315C77.4548 36.3647 77.1604 36.5248 77.1604 36.683C77.1604 36.8357 77.0923 36.9572 77.0114 36.9517C76.9286 36.9462 76.8384 37.27 76.809 37.6693C76.7795 38.0722 76.6691 38.5028 76.5606 38.6261C76.4538 38.7493 76.4244 38.9131 76.4962 38.9904C76.5698 39.0677 76.4778 39.1192 76.2993 39.1082C76.0914 39.0953 76.0141 39.2001 76.0877 39.3915C76.1502 39.5608 76.095 40.1422 75.9607 40.685C75.7418 41.583 75.6663 41.6694 75.1511 41.6381C74.7555 41.6142 74.5476 41.4799 74.4556 41.1855C74.3636 40.8966 74.1833 40.7715 73.8723 40.7936C73.737 40.7968 73.6024 40.7727 73.4766 40.7227C73.3508 40.6728 73.2363 40.598 73.14 40.5029C72.7389 40.0465 71.7821 38.0373 71.6238 37.3141C71.5342 36.9372 71.3917 36.5748 71.2006 36.2378C70.507 35.1245 70.759 32.5081 71.5723 32.3443C71.7802 32.3038 71.9385 32.0131 71.99 31.5715C72.0599 30.9753 72.0066 30.8539 71.6404 30.7601C71.3092 30.6754 71.2301 30.7325 71.3037 31.0158C71.4398 31.5476 70.483 31.6929 70.0285 31.209C69.7066 30.8686 69.7084 30.8079 70.0654 30.1713C70.4131 29.5457 70.4959 29.507 71.1859 29.6432L71.933 29.7867L71.4472 29.3083C71.1804 29.0433 71.0038 28.771 71.0553 28.7011C71.1086 28.6312 71.0479 28.6588 70.9154 28.7618C70.5824 29.0231 69.9586 28.9569 69.931 28.6533C69.8832 28.1436 69.9991 27.5971 70.2034 27.3597C70.3506 27.1886 70.3506 26.9789 70.2034 26.6605C69.931 26.0717 69.357 24.1581 69.357 23.838C69.357 23.7018 69.2153 23.4313 69.046 23.2345C68.8566 22.9949 68.7221 22.7166 68.6522 22.4193C68.5474 21.8673 68.6467 21.9649 67.5869 21.365L66.7258 20.8737L66.0431 21.2362C65.4782 21.5343 65.2519 21.5509 64.7478 21.3448C64.113 21.0835 63.6419 20.4358 63.8498 20.112C63.9161 20.0071 63.7394 19.8231 63.4579 19.698C62.8139 19.4146 62.8066 18.9896 63.4303 18.5388L63.9106 18.1929L63.2426 17.7881C61.7688 16.9012 61.1211 14.2994 68.529 14.132ZM44.4802 15.7604C45.2235 15.7953 45.7314 15.8597 45.6081 15.9039C45.4866 15.9462 45.4314 16.202 45.483 16.4743C45.5566 16.8681 45.4664 17.0042 45.0414 17.1404C44.3569 17.3575 44.3955 17.3667 44.0882 16.9196C43.9289 16.6981 43.7196 16.5172 43.4774 16.3915C43.2842 16.3087 43.1278 16.1155 43.1278 15.9683C43.1278 15.7696 43.4884 15.7107 44.4802 15.7604ZM49.6837 16.0585C50.5135 16.0695 50.7877 16.3161 50.2835 16.6049C49.8714 16.8386 48.9587 16.7595 48.7269 16.4669C48.4527 16.1192 48.6349 16.0437 49.6837 16.0585ZM51.531 16.1486C52.2008 16.1891 52.3554 16.2609 52.2634 16.4927C52.1879 16.6859 52.2707 16.7908 52.5081 16.8055C52.9754 16.8349 53.1337 17.0171 53.0012 17.3575C52.854 17.7329 52.1217 17.6445 51.6359 17.1919C51.3927 16.9646 51.1664 16.7198 50.9588 16.4596C50.7067 16.1265 50.7564 16.0989 51.5292 16.1468M47.1592 16.3805C47.3322 16.2185 47.932 16.9067 47.978 17.3244C48.0663 18.0843 47.5861 17.9813 47.3285 17.1845C47.196 16.7779 47.1206 16.4154 47.1592 16.3805ZM42.5776 16.4945C42.6604 16.524 42.7469 16.6307 42.883 16.8331C43.0762 17.1201 43.1222 17.3262 42.9934 17.3612C42.8775 17.3925 42.826 17.6353 42.8757 17.8948C42.9254 18.1579 42.8628 18.4265 42.7414 18.4928C42.6218 18.559 42.5261 18.7669 42.5298 18.9528C42.5353 19.2638 42.5518 19.2619 42.7395 18.9528C42.9548 18.594 43.7276 18.5241 43.7276 18.8626C43.7276 18.973 43.8656 19.0705 44.0367 19.0834C44.206 19.0926 44.4986 19.3797 44.6862 19.7219C44.8886 20.0899 45.1904 20.3512 45.4259 20.3659C45.7314 20.3843 45.7626 20.342 45.5529 20.1966C45.4002 20.0899 45.3339 19.9151 45.4057 19.8047C45.4399 19.7498 45.4514 19.6837 45.4376 19.6205C45.4239 19.5572 45.386 19.5019 45.3321 19.4661C45.0156 19.2509 45.0874 18.8645 45.5382 18.41C45.9632 17.9794 46.4361 18.0604 46.2502 18.5314C46.1914 18.6786 46.2374 18.8626 46.3496 18.9381C46.4637 19.0153 46.5097 19.2049 46.4508 19.3557C46.3772 19.5434 46.4968 19.6354 46.8317 19.6575C47.4113 19.6943 47.7517 20.2629 47.5934 20.9216C47.483 21.3779 47.4941 21.3853 47.7811 21.032C48.0755 20.6732 48.0829 20.6732 48.3129 21.1166C48.4417 21.365 48.4969 21.5729 48.438 21.584C48.2195 21.6064 48.0005 21.623 47.7811 21.6337C46.2797 21.722 45.5805 21.8673 45.0947 22.1801C44.425 22.6125 43.8251 22.5776 43.4902 22.09C43.3467 21.8802 42.9346 21.5196 42.5776 21.2877C42.0826 20.9694 41.952 20.7725 42.0385 20.4689C42.1139 20.1985 42.09 20.1488 41.9704 20.3144C41.7919 20.5573 41.124 20.399 41.124 20.112C41.124 19.8728 41.8342 19.3484 42.1305 19.3668C42.3402 19.3797 42.3513 19.3226 42.171 19.1331C41.9925 18.9417 41.8342 19.008 41.5067 19.4054C41.2123 19.7605 40.9731 19.8728 40.7523 19.7642C40.5431 19.6698 40.3189 19.6131 40.0899 19.5968C39.5453 19.5839 39.5011 19.0429 40.0071 18.5296C40.3479 18.1673 40.6639 17.7825 40.9529 17.3777C41.2289 16.984 41.549 16.7448 41.7294 16.8C41.8968 16.8515 42.1526 16.7742 42.2998 16.627C42.4138 16.5129 42.4948 16.4669 42.5776 16.4945ZM57.2442 16.5847C57.7778 16.5608 58.3722 16.5663 58.9223 16.5921H58.926C60.03 16.6436 60.9574 16.7853 60.893 16.9766C60.847 17.1109 60.6078 17.2397 60.3594 17.26C60.065 17.2857 59.949 17.3998 60.0226 17.5949C60.0834 17.7568 59.9766 18.0457 59.7853 18.2333C59.3584 18.6547 59.259 19.0466 59.5884 18.9988C59.7227 18.9804 59.8644 19.157 59.9012 19.3944C59.9472 19.7072 59.7724 19.9317 59.2793 20.2077C58.4936 20.6437 58.1054 20.6769 58.2544 20.296C58.328 20.1065 58.1624 20.0273 57.6472 20.0089C57.2571 19.9942 56.9388 20.0549 56.9388 20.1414C56.9388 20.2297 56.4972 20.2132 55.9507 20.1046C55.1963 19.9593 54.8835 19.9832 54.6535 20.2003C54.3812 20.4561 54.4235 20.526 55.0528 20.8645C55.7097 21.216 55.8238 21.2215 56.7603 20.9694C57.5773 20.7486 57.868 20.7486 58.3372 20.9731C59.007 21.2914 59.2462 21.7643 58.9223 22.1323C58.7972 22.2758 58.742 22.5739 58.7972 22.791C58.8524 23.0081 58.7862 23.2179 58.65 23.2621C58.3262 23.3669 54.5505 23.1222 54.039 22.964H54.0353C53.3434 22.7487 53.1374 22.4304 53.1337 21.5766C53.13 20.2242 52.9589 19.8249 52.4363 19.9225C52.0904 19.9887 51.8806 19.8636 51.555 19.3889C50.9202 18.456 50.9993 18.1137 51.831 18.1653C52.3094 18.1947 52.6093 18.3401 52.7786 18.6179C52.9423 18.8921 53.1613 18.9988 53.441 18.9454C53.5698 18.9236 53.7022 18.9364 53.8244 18.9827C53.9466 19.0289 54.0543 19.1069 54.1365 19.2085C54.3757 19.5121 54.4309 19.4901 54.6609 18.9565C54.8026 18.6289 55.051 18.3677 55.2129 18.3787C55.476 18.3934 55.476 18.3235 55.2258 17.8249C55.0675 17.5121 54.9387 17.1993 54.9369 17.1312C54.9369 17.0613 55.3822 16.8865 55.9268 16.7429C56.3597 16.6474 56.801 16.5944 57.2442 16.5847ZM43.5086 17.904C43.7202 17.9132 43.9263 18.0788 43.9263 18.2885C43.9263 18.5204 43.7092 18.5112 43.3522 18.2628C43.1627 18.1303 43.1498 18.0365 43.3044 17.95C43.3669 17.9161 43.4376 17.9001 43.5086 17.904ZM65.0569 17.9905C64.8858 17.9794 64.7441 18.0585 64.7441 18.1689C64.7441 18.2793 64.8324 18.375 64.9354 18.3805C65.0385 18.3879 65.1746 18.3069 65.2446 18.2021C65.3126 18.0953 65.2298 17.9997 65.0569 17.9905ZM50.5172 18.6933C50.5816 18.7007 50.6699 18.7633 50.8042 18.8847C51.071 19.1202 51.1391 19.4827 51.1097 20.5554L51.0729 21.9244L50.2817 21.8747C49.5218 21.8269 49.4905 21.7974 49.5678 21.2638C49.6414 20.7615 49.599 20.7118 49.1593 20.767C48.7122 20.8259 48.6809 20.7836 48.806 20.2923C48.898 19.939 48.8741 19.7955 48.7342 19.8728C48.3442 20.0899 47.829 19.7329 47.7995 19.2214C47.7664 18.6437 48.1418 18.5774 48.6165 19.0816C48.7894 19.2656 48.933 19.3429 48.933 19.2509C48.933 18.9031 49.7518 18.605 50.0278 18.8516C50.2246 19.0264 50.3166 19.0209 50.381 18.8332C50.416 18.732 50.4546 18.686 50.5172 18.6933ZM51.9984 20.7817C52.7528 20.8296 53.2864 22.4856 52.6166 22.7009C52.199 22.8352 52.267 22.8665 51.7353 22.2666C51.3323 21.8121 51.2974 21.6686 51.4961 21.2491C51.6212 20.9805 51.8475 20.7726 51.9984 20.7817ZM39.6465 21.9005C39.9924 21.8673 40.2353 21.871 40.4303 21.9133C40.6135 21.9545 40.7805 22.0485 40.9106 22.1838C41.1185 22.3825 41.4736 22.5297 41.7018 22.5077C41.987 22.4801 42.3752 22.7616 42.9235 23.3946C43.3651 23.9042 43.7221 24.4029 43.7221 24.5059C43.7221 24.6071 43.8122 24.6476 43.919 24.5869C44.0257 24.528 44.3422 24.6402 44.62 24.8389C45.0947 25.1793 45.126 25.1812 45.126 24.8573C45.126 24.5335 45.1591 24.5335 45.6265 24.8684C46.1141 25.218 46.1251 25.218 46.1251 24.7249C46.1251 24.4268 46.241 24.2262 46.4066 24.2354C46.5594 24.2446 46.7342 24.1195 46.7986 23.9594C46.9163 23.6558 47.8308 23.6043 48.0019 23.8913C48.0553 23.9797 47.9946 24.4194 47.8731 24.8665C47.7094 25.3868 47.7126 25.9453 47.8823 26.4637C48.0111 26.8924 48.1694 27.4517 48.2356 27.7038C48.3018 27.9559 48.4601 28.1712 48.5907 28.1822C48.9642 28.2153 49.7315 28.9808 49.7315 29.3212C49.7315 29.4905 49.5733 29.7076 49.3819 29.8014C49.1887 29.8971 49.1004 30.0443 49.1795 30.129C49.4334 30.3976 48.9072 30.7969 48.346 30.7619C48.1399 30.6938 47.5364 30.4804 47.4738 30.4749C47.4683 30.4749 45.7737 30.8429 45.4682 30.8944C45.2524 30.8458 45.0325 30.818 44.8114 30.8116C44.4397 30.6736 43.941 30.9441 43.7258 30.3313C43.7258 30.2062 43.4185 29.9854 43.0431 29.8382C42.4267 29.5972 42.1231 29.2458 42.1231 28.7747C42.1231 28.6827 42.3734 28.5318 42.6751 28.4398L43.2216 28.2742L42.596 28.219C41.9575 28.162 41.7238 27.8731 41.7238 27.1334C41.7238 26.9218 41.6318 26.7434 41.5214 26.736C41.2399 26.7176 41.273 26.0497 41.573 25.7516C41.779 25.5473 41.7422 25.5381 41.3706 25.7056C41.124 25.816 40.9216 26.092 40.9216 26.3128C40.9216 26.5336 40.767 26.7544 40.572 26.8114C40.3255 26.8981 40.0945 27.0236 39.8875 27.1831C39.5876 27.4223 39.5195 27.3855 39.2435 26.8372C39.0742 26.5005 38.7854 26.1564 38.6032 26.0754C38.3714 25.9724 38.3143 25.7994 38.4063 25.4903C38.4799 25.2474 38.5719 24.8058 38.6179 24.5096C38.6639 24.2115 38.7909 23.8012 38.9031 23.5988C39.0319 23.3688 39.0374 22.9953 38.927 22.6052C38.7522 21.9814 38.7614 21.9777 39.6446 21.9005M52.6148 23.3228C52.8724 23.3117 53.1944 23.378 53.5808 23.516C54.372 23.803 54.4456 23.9226 54.1567 24.4691C54.0574 24.6531 53.877 25.0469 53.7574 25.3431C53.6378 25.6375 53.4134 25.873 53.257 25.8638C52.8834 25.8399 52.6682 26.7323 52.9258 27.2328C53.0398 27.4499 53.1318 27.7793 53.1318 27.9614C53.1318 28.1454 53.314 28.5373 53.5348 28.8317C53.8402 29.2402 53.8844 29.4261 53.7096 29.6229C53.5366 29.8217 53.5569 29.8842 53.8071 29.899C54.004 29.9118 54.131 30.0866 54.131 30.3442C54.131 30.7067 54.1788 30.738 54.4438 30.5356C54.8927 30.1897 55.3748 30.7619 55.3748 31.6451C55.3748 32.0278 55.4521 32.4713 55.5496 32.6313C55.6508 32.7969 55.7281 32.8264 55.7299 32.6994C55.7299 32.5743 55.8826 32.1327 56.0685 31.7169C56.5763 30.5724 56.293 29.4573 55.4797 29.4077C54.8026 29.3653 54.0702 27.7848 54.2101 26.6716C54.4235 24.9567 55.0234 24.1692 56.0648 24.2354C56.5671 24.2667 56.6941 24.3458 56.6076 24.5703C56.5046 24.8279 56.5598 24.8316 57.0639 24.6016C57.9563 24.1949 59.7135 24.5593 60.2876 25.2713C60.5342 25.5768 60.7402 25.919 60.7439 26.0294C60.7568 26.4048 61.8387 27.7333 62.0798 27.667C62.2122 27.6302 62.4827 27.8087 62.6796 28.0626C62.8783 28.3165 63.1617 28.6312 63.3089 28.7637C64.2197 29.5806 64.7312 30.3001 64.6282 30.6184C64.5601 30.8318 64.619 30.9753 64.779 30.9882C64.9557 31.0029 64.9262 31.0931 64.6926 31.2569C64.2307 31.5807 64.251 31.8972 64.7422 32.0849C64.963 32.1677 65.147 32.3149 65.147 32.4161C65.147 32.5136 65.3016 32.5504 65.4948 32.4934C65.6862 32.4382 65.7782 32.4584 65.6954 32.5449C65.6144 32.6295 65.907 33.0527 66.3467 33.4851C67.2483 34.3738 67.3035 34.6333 66.7442 35.3122C66.5289 35.5735 66.3486 35.901 66.3467 36.0372C66.343 36.1752 66.2492 36.2819 66.1333 36.2746C65.8683 36.258 64.9465 35.2129 64.9373 34.9203C64.9336 34.7989 64.8434 34.8412 64.7349 35.016C64.4994 35.4079 64.6852 35.982 65.055 36.0059C65.7064 36.0464 66.1958 38.4273 65.5886 38.5929C65.4525 38.6297 65.3439 38.5617 65.3439 38.4421C65.3439 38.3225 65.2648 38.2213 65.171 38.2157C65.0753 38.2084 65.044 38.4457 65.0974 38.7365C65.2041 39.2977 65.2611 39.2885 63.9934 38.8432C63.745 38.7567 63.5389 38.615 63.5389 38.5249C63.5389 38.4329 63.3181 38.2893 63.0476 38.2047C62.7397 38.0899 62.4806 37.873 62.3134 37.5901C61.8001 36.5965 61.2389 36.2764 60.5176 36.5616C59.9748 36.7769 59.4578 36.2065 59.6178 35.5735C59.7374 35.1025 59.835 35.0509 60.3078 35.1742C60.9426 35.3398 61.456 35.1319 61.2536 34.7897C61.1782 34.6609 61.2996 34.3315 61.5259 34.0573C61.7541 33.7813 61.9399 33.3582 61.9399 33.1189C61.9399 32.5191 60.9077 31.4924 60.4514 31.6377C60.1698 31.7297 60.1146 31.6561 60.1643 31.2716C60.2342 30.749 59.6546 29.7168 59.4596 30.0185C59.3934 30.1216 59.0162 30.186 58.6224 30.1621C57.765 30.1069 57.5221 30.2798 57.96 30.6294C58.2047 30.8226 58.2765 31.1961 58.2599 32.1235C58.2305 33.6213 57.6067 34.5266 56.7401 34.3334C56.2727 34.2303 56.2966 34.2837 57.0308 34.9884C57.4706 35.4116 57.8993 35.7612 57.9839 35.7685C58.0667 35.7722 58.1348 35.8918 58.1348 36.0298C58.1348 36.1697 58.3188 36.407 58.5433 36.5634C58.7678 36.7162 58.8966 36.9241 58.8322 37.0253C58.6702 37.2773 57.7889 37.2074 57.6233 36.9277C57.5386 36.7842 57.3381 36.8449 57.0529 37.0933C56.6665 37.4319 56.545 37.4448 56.0758 37.1982C55.5478 36.9204 55.3987 36.6076 55.671 36.35C55.7483 36.2782 55.8348 36.0225 55.8661 35.7796L55.9268 35.338L55.6692 35.7814C55.5275 36.0261 55.1209 36.3813 54.7713 36.5726C54.4198 36.764 54.131 37.0363 54.131 37.1762C54.131 37.316 53.8476 37.6803 53.5017 37.9857C52.3866 38.9683 51.9322 40.7274 52.7252 40.985C52.9754 41.0659 53.165 41.3474 53.2404 41.7486C53.3379 42.2748 53.4538 42.3925 53.9212 42.4385C54.234 42.468 54.786 42.7293 55.154 43.0163C56.1899 43.8222 56.729 44.0946 57.3583 44.1332C57.9103 44.17 57.9361 44.2141 57.9361 45.0606C57.9361 45.7229 58.063 46.1038 58.4329 46.5454C59.0769 47.3164 59.3437 46.9833 59.1082 45.7082C58.9499 44.8489 58.9794 44.7588 59.5387 44.2712C59.8699 43.9841 60.1367 43.6714 60.1367 43.5775C60.133 43.0384 59.6878 41.8994 59.4357 41.7872C59.0493 41.6142 59.0493 41.0365 59.4394 41.0622C59.6859 41.077 59.7319 40.7973 59.6896 39.5277C59.6491 38.2268 59.6878 37.9876 59.938 38.0722C60.1036 38.1274 60.6041 38.201 61.053 38.2397C61.675 38.2949 61.9914 38.4513 62.3926 38.9094C62.6814 39.2388 63.0697 39.5406 63.2555 39.581C63.5002 39.6326 63.6088 39.8754 63.6419 40.4606C63.6714 40.9574 63.8462 41.4394 64.0927 41.7007C64.4718 42.1055 64.5122 42.1073 64.7901 41.8019C64.952 41.6234 65.1434 41.2425 65.217 40.9537C65.3476 40.4422 65.9474 40.2324 65.9474 40.6979C65.9474 40.8267 66.0726 41.0862 66.2271 41.2683C66.3835 41.4523 66.7037 42.1883 66.9392 42.9059C67.4047 44.3227 67.6292 44.6447 68.3192 44.906C68.5676 45.0017 68.8712 45.3053 68.9908 45.5794C69.1122 45.8517 69.322 46.0799 69.4582 46.0891C69.771 46.1075 69.9458 47.2428 69.6734 47.4986C69.5336 47.6273 69.5483 47.6954 69.7176 47.7065C69.9016 47.7175 69.909 47.8169 69.7452 48.1113C69.4968 48.5621 69.8777 49.1178 70.4573 49.1546C70.6726 49.1674 70.7517 49.2834 70.6781 49.471C70.6137 49.6311 70.6413 49.7654 70.7333 49.7728C71.013 49.7912 71.1454 50.6321 70.932 51.0203C70.7719 51.3074 70.656 51.3331 70.3395 51.1418C70.1206 51.0111 69.8574 50.9541 69.7562 51.0093C69.6569 51.0645 69.5207 51.0129 69.4508 50.8989C69.3827 50.7811 69.0147 50.667 68.632 50.6413C68.023 50.6045 67.9438 50.5438 68.0064 50.1537C68.045 49.909 68.2456 49.3809 68.448 48.9816C68.862 48.1738 68.7387 47.815 68.1996 48.2677C67.9284 48.4634 67.6185 48.5989 67.2906 48.6651C66.8454 48.7498 66.7791 48.827 66.965 49.0607C67.149 49.2962 67.1011 49.3459 66.7202 49.3165C66.4068 49.2757 66.1094 49.1539 65.8573 48.9632C65.4138 48.6007 64.7422 48.5014 64.7422 48.7976C64.7422 48.908 65.0238 49.0184 65.3678 49.0405C65.9603 49.0773 65.9879 49.1104 65.872 49.6863C65.7358 50.3561 65.975 50.7351 66.6816 50.9614C66.9539 51.0516 67.16 51.0037 67.2262 50.8326C67.3808 50.4389 67.6973 50.5217 67.8445 50.9946C67.999 51.4877 67.6881 51.8078 66.7442 52.1188C66.3596 52.2476 65.9051 52.461 65.7322 52.5972C65.2354 52.9836 64.9465 52.864 64.9299 52.2623C64.9207 51.9605 64.8692 51.8189 64.8158 51.9477C64.7606 52.0765 64.411 52.2605 64.0394 52.3598C63.3586 52.5438 62.8691 53.2982 63.3162 53.4749C63.6235 53.5963 63.6033 53.9312 63.2905 53.9128C62.8286 53.8852 61.502 54.2329 61.6124 54.3507C61.6731 54.4151 61.4965 54.8953 61.2205 55.4216C60.939 55.9625 60.7734 56.544 60.8396 56.7593C60.9261 57.0353 60.7513 57.2781 60.2011 57.6572C58.8837 58.5625 58.3354 59.0666 58.3354 59.3758C58.3354 59.5414 58.4862 60.1614 58.6702 60.7558C58.9444 61.6408 58.9573 61.8855 58.7438 62.1284C58.604 62.2903 58.4255 62.421 58.3501 62.4154C58.1495 62.4026 57.3381 60.8551 57.3381 60.4853C57.3381 60.0566 57.1651 59.9664 55.8293 59.7272C54.7989 59.5432 54.6793 59.5598 54.7915 59.8597C54.9314 60.2295 54.418 60.2497 53.233 59.9185C52.8025 59.7971 52.4547 59.8542 52.0039 60.1154C51.4335 60.4466 51.3562 60.6049 51.2348 61.7714C51.0894 63.1588 51.2679 63.9169 51.8972 64.5829C52.4106 65.1294 53.7924 65.0264 53.8973 64.4358C53.9543 64.1903 54.0923 63.9712 54.2892 63.8138C54.6241 63.5746 55.9342 63.5654 55.9342 63.8028C55.9342 63.9555 55.5698 65.1147 55.3141 65.779C55.154 66.1893 55.1945 66.2224 55.9213 66.2684C57.2038 66.3475 57.3381 66.4745 57.3381 67.6484C57.3381 69.0192 57.8754 69.7773 58.6371 69.4773C58.8023 69.4083 58.9805 69.376 59.1593 69.3827C59.3382 69.3894 59.5135 69.4348 59.673 69.516C60.133 69.7202 60.2692 69.6889 60.6243 69.2952C61.0512 68.8205 62.7403 68.3715 62.7403 68.7303C62.7403 68.8352 62.917 68.8757 63.1341 68.8186C63.3494 68.7634 63.7321 68.8426 63.9805 68.9916C64.2307 69.1406 64.9557 69.2878 65.5942 69.3228C66.5786 69.3743 66.8435 69.4718 67.3348 69.9521C68.724 71.31 69.2686 71.7038 69.8133 71.7369C70.7922 71.7976 71.6478 72.3938 72.0268 73.2788C72.22 73.7278 72.3212 74.1786 72.2513 74.2853C72.2476 74.2908 72.369 74.3037 72.3801 74.311L72.3433 74.3368L73.6515 74.7821L74.3176 75.2273C74.6819 75.4721 75.4032 75.7554 75.9184 75.8566C76.4336 75.9578 77.1236 76.2614 77.4548 76.5282C77.786 76.795 78.2368 77.0563 78.4576 77.1097C78.7667 77.1851 78.8698 77.3894 78.9176 78.0223C78.9691 78.7399 78.8624 78.9736 78.0657 79.8917C77.3205 80.7492 77.1567 81.0878 77.1567 81.7428C77.1567 82.6941 76.855 83.6196 76.2367 84.5709C75.8779 85.1229 75.6203 85.2811 74.9855 85.3437C73.9109 85.4486 72.9505 86.2066 72.9505 86.9537C72.9505 87.5241 72.3304 88.6428 71.6073 89.3641C71.3034 89.6851 71.0201 90.0249 70.759 90.3816C70.3634 90.9262 70.196 91.0053 69.6458 90.906C68.9982 90.7901 68.8914 90.9354 69.2245 91.4893C69.633 92.1701 68.5621 93.079 67.4397 93.0091C67.0643 92.9852 66.9153 93.1232 66.781 93.62C66.6356 94.1536 66.5215 94.2456 66.0762 94.1886C65.7818 94.1481 65.5445 94.1996 65.5445 94.3026C65.5445 94.4057 65.6678 94.4977 65.8205 94.5069C66.2841 94.5363 66.3651 95.1196 65.9364 95.3238C65.7193 95.425 65.5445 95.6606 65.5445 95.8446C65.5445 96.0285 65.2979 96.3708 64.9943 96.6026L64.4423 97.0258L64.9078 97.4509C65.4322 97.9293 65.3789 98.4114 64.7404 98.9486C64.5214 99.1326 64.3448 99.3774 64.3448 99.4841C64.3448 99.5945 64.1884 99.784 63.9989 99.9091C63.7082 100.104 63.6971 100.222 63.9014 100.686C64.0357 100.986 64.1424 101.392 64.1424 101.587C64.1424 101.99 64.9391 102.864 65.3255 102.888C65.4654 102.897 65.5408 103.017 65.4948 103.151C65.4138 103.39 63.9952 103.407 62.9814 103.182C62.6759 103.116 62.5398 102.971 62.5839 102.752C62.6207 102.57 62.4754 102.318 62.2638 102.194C62.0443 102.064 61.8604 101.881 61.7283 101.663C61.421 101.037 61.0954 99.0627 61.1708 98.2807C61.226 97.6919 61.1818 97.4987 60.9942 97.5594C60.8378 97.6091 60.7402 97.473 60.7402 97.1988C60.7402 96.9265 60.8911 96.7278 61.1395 96.6781C61.3603 96.6339 61.5406 96.4389 61.5406 96.2402C61.5406 96.0414 61.5958 95.7378 61.6639 95.5686C61.7449 95.3588 61.6731 95.2521 61.4413 95.2374C61.1782 95.2208 61.1248 95.1086 61.2205 94.7737C61.2904 94.5308 61.4008 93.7488 61.4615 93.0386C61.5241 92.3265 61.7467 91.331 61.9583 90.8269C62.1699 90.3246 62.3392 89.5278 62.3392 89.0531C62.3392 88.5765 62.479 87.4891 62.6446 86.6372C62.8218 85.6622 62.9215 84.6747 62.9427 83.684C62.9427 82.4751 62.8783 82.2267 62.4901 81.8808C62.2417 81.6563 61.9657 81.4686 61.8718 81.4576C61.307 81.4024 60.4587 80.3591 59.7338 78.8264C59.2848 77.8825 58.7438 76.9367 58.5304 76.7288C58.1385 76.3516 58.0078 75.6027 58.2894 75.3378C58.3722 75.2605 58.4402 74.9146 58.4402 74.5649V73.9338L58.7383 73.4977C58.7383 73.4149 58.9867 73.0966 59.2885 72.7912C59.5902 72.4839 59.8092 72.046 59.7798 71.8197C59.6068 70.4507 59.4964 70.0938 59.2296 70.0772C59.1915 70.0751 59.1534 70.081 59.1177 70.0944C59.082 70.1078 59.0494 70.1285 59.0221 70.1551C58.9948 70.1818 58.9733 70.2138 58.959 70.2491C58.9446 70.2845 58.9378 70.3224 58.9389 70.3605C58.9389 70.6973 58.4292 70.7359 58.2397 70.4158C58.1929 70.3523 58.133 70.2996 58.0642 70.2612C57.9953 70.2227 57.919 70.1995 57.8404 70.1931C57.4706 70.1692 56.1568 69.2345 56.1366 68.9805C56.1016 68.5353 55.384 67.9134 54.5339 67.5914C54.0371 67.4037 53.3747 67.0265 53.0601 66.7486C52.6222 66.3641 52.3388 66.2647 51.853 66.3254C51.3746 66.3862 50.8226 66.2003 49.6266 65.5821C47.713 64.5903 47.2935 64.2205 47.4389 63.6501C47.518 63.341 47.323 62.9748 46.6882 62.2646C45.3376 60.7502 44.3477 59.4273 44.1324 58.8477C44.0238 58.5533 43.838 58.3067 43.7276 58.3012C43.4019 58.281 43.4884 58.5845 43.9742 59.1807C44.2226 59.4843 44.6494 60.178 44.9236 60.7226C45.1996 61.2673 45.54 61.7898 45.678 61.8873C45.75 61.9426 45.8093 62.0125 45.8522 62.0924C45.895 62.1724 45.9203 62.2605 45.9264 62.351C45.9264 62.5111 45.816 62.6326 45.678 62.6197C45.3082 62.5884 44.2796 61.569 44.4139 61.3629C44.4765 61.2654 44.2373 60.9637 43.8785 60.6932C43.6259 60.5057 43.3763 60.3143 43.1296 60.1191C43.0781 60.075 43.1664 59.9664 43.3246 59.8799C43.5712 59.7401 43.562 59.6591 43.2566 59.3316C43.0597 59.1218 42.688 58.5349 42.4341 58.0252C42.171 57.4971 41.7238 56.9543 41.3982 56.774C40.7063 56.3876 40.537 56.1631 39.709 54.4979C39.0926 53.2614 39.065 53.1087 39.0411 50.6891C39.019 48.4553 38.973 48.1315 38.6345 47.8647C37.4661 46.9374 37.0889 46.4498 37.3281 46.1793C37.5121 45.9658 37.4863 45.7837 37.2085 45.3329C37.0116 45.0201 36.7338 44.6852 36.5866 44.5877C36.4394 44.4902 36.3161 44.1902 36.3161 43.9179C36.2902 43.5916 36.1471 43.2857 35.9131 43.0568C35.6923 42.8544 35.5157 42.5729 35.5157 42.4349C35.5157 42.089 34.8827 41.3327 34.6858 41.4413C34.5975 41.4909 34.4687 41.2941 34.397 41.0107C34.3178 40.6869 34.132 40.49 33.8946 40.4771C33.6867 40.4624 33.1034 40.1091 32.5974 39.6914C31.959 39.1652 31.4695 38.9205 30.9911 38.891C30.5992 38.8671 29.9589 38.6077 29.5062 38.2949C29.0683 37.9894 28.7077 37.8257 28.7077 37.9269C28.7077 38.0299 28.8218 38.1605 28.9598 38.2157C29.1566 38.293 29.1548 38.3777 28.945 38.6169C28.7997 38.7843 28.555 38.8689 28.4022 38.8009C28.2514 38.7328 27.9202 38.8064 27.6699 38.9665C26.9302 39.4375 26.6377 39.3197 26.783 38.604L26.9082 37.9821L26.5052 38.466C26.2844 38.7346 26.1556 39.0898 26.2182 39.2572C26.2807 39.4246 26.2384 39.616 26.1206 39.6804C26.0585 39.7186 26.0068 39.7715 25.9699 39.8343C25.933 39.8972 25.9121 39.9682 25.909 40.041C25.9127 40.1717 26.0084 40.1257 26.1206 39.9398C26.2329 39.7558 26.45 39.6105 26.6027 39.6197C27.1032 39.651 26.8272 40.5581 26.1611 41.0751L25.5171 41.5793L25.5742 40.8746C25.6367 40.0907 25.6901 40.0742 24.2494 41.3014C23.7967 41.6878 23.3533 41.9528 23.265 41.8902C23.173 41.8313 23.103 41.927 23.103 42.1037C23.103 42.2822 23.0129 42.3686 22.908 42.2969C22.8031 42.227 22.3983 42.284 22.0064 42.4238C21.1563 42.7256 20.9999 42.733 20.9999 42.4882C20.9999 42.295 22.4057 41.3603 22.6706 41.3769C22.943 41.3953 24.0506 40.2729 24.1592 39.8718C24.2457 39.5479 24.2052 39.5111 23.9034 39.6528C23.6385 39.7779 23.5115 39.7393 23.4287 39.5203C23.3496 39.3069 23.1417 39.2443 22.7185 39.3032C22.1702 39.3805 22.1278 39.3474 22.207 38.9131C22.2824 38.5028 22.2162 38.4347 21.747 38.409C21.3182 38.3887 21.2005 38.2875 21.195 37.9416C21.1913 37.7005 20.9742 37.3013 20.7129 37.0584C20.2842 36.6591 20.2602 36.569 20.4976 36.1421C20.7589 35.6674 22.1094 34.7382 22.4977 34.7621C22.7553 34.7768 22.7682 34.2432 22.5161 34.0721C22.4913 34.0552 22.4634 34.0436 22.434 34.0379C22.4046 34.0323 22.3743 34.0326 22.3451 34.039C22.3158 34.0453 22.2882 34.0576 22.2638 34.075C22.2394 34.0924 22.2188 34.1146 22.2033 34.1401C22.1334 34.2505 21.9678 34.2653 21.8371 34.1714C21.6754 34.0663 21.4937 33.9956 21.3035 33.9635C21.0965 33.9359 20.8898 33.9059 20.6834 33.8733C20.3449 33.8218 19.8996 33.003 19.8996 32.429C19.8996 32.0591 20.849 31.4537 21.3808 31.4869C21.5574 31.4979 21.701 31.6433 21.701 31.807C21.701 31.9726 21.8334 32.118 21.999 32.1272C22.1646 32.1382 22.3045 31.9689 22.3045 31.7463C22.3045 31.5255 22.2162 31.3415 22.1113 31.3323C22.0046 31.3268 21.5151 30.9017 21.022 30.3921C20.3412 29.6892 20.1498 29.3635 20.2345 29.0434C20.3136 28.7453 20.5031 28.6293 20.8858 28.6514C21.3201 28.679 21.493 28.541 21.7727 27.9265C22.1039 27.1941 23.3275 26.2815 23.8206 26.3993C23.9402 26.4269 24.1997 26.2833 24.3966 26.0791C24.713 25.7479 24.8142 25.7405 25.2798 26.0037C25.5686 26.1674 26.0526 26.3753 26.3543 26.4673C26.6579 26.5593 26.9082 26.7231 26.9082 26.8298C26.9082 26.9384 27.1823 27.0433 27.5154 27.0635C27.8484 27.0837 28.4427 27.2549 28.8383 27.4444C29.2339 27.6339 29.9018 27.8124 30.3214 27.84C30.7427 27.8657 31.1346 27.9688 31.1954 28.07C31.2561 28.1712 31.6112 28.3331 31.9829 28.4251C32.3546 28.5171 32.8164 28.7821 33.0133 29.0121C33.5285 29.6138 33.9149 29.5678 35.2894 28.7361C36.1486 28.2135 36.6289 28.0405 36.9159 28.1491C37.1827 28.2503 37.3078 28.2227 37.2729 28.0626C37.2416 27.9283 37.3299 27.7866 37.4698 27.7425C37.617 27.6983 37.8562 27.9927 38.053 28.4545L38.3861 29.2421L38.5922 28.7066C38.8314 28.0792 39.0319 28.0258 39.1699 28.5668C39.2417 28.8446 39.3999 28.9348 39.7477 28.8888C40.0255 28.852 40.6603 29.0728 41.2546 29.4077C41.8177 29.726 42.4985 29.9965 42.7634 30.0149C43.0183 30.0322 43.2616 30.1273 43.4608 30.2872L43.8343 30.876C43.8582 30.9312 43.7497 31.0637 43.5694 31.1888C43.2621 31.4041 43.3118 31.4409 43.9852 31.4869C44.4066 31.5181 44.9181 31.4593 45.126 31.3617C45.3762 31.244 45.5418 31.255 45.6228 31.3949C45.6927 31.5089 45.8804 31.6101 46.0405 31.6212C46.4858 31.3231 47.0341 30.657 48.3368 31.3636C48.5392 31.3746 48.7545 31.4703 48.8152 31.5733C48.8778 31.6764 49.2366 31.7739 49.6138 31.7868C50.1621 31.8052 50.3148 31.7169 50.3866 31.3507C50.4418 31.0563 50.3792 30.887 50.2026 30.876C49.8456 30.8539 49.853 30.8079 50.3645 29.9707L50.8024 29.2605L51.4611 30.0185C51.8788 30.4988 52.1714 30.6993 52.2578 30.565C52.3351 30.4454 52.1603 30.1308 51.8733 29.8658C51.4574 29.4831 51.3581 29.2181 51.3673 28.5263C51.3746 28.0516 51.509 27.4683 51.669 27.2328C51.8843 26.9181 51.9266 26.5152 51.8273 25.7056C51.6249 24.0864 51.8402 23.3522 52.6148 23.3228ZM49.7315 23.7184C49.9431 23.6981 50.2265 23.7 50.5908 23.7184L51.3526 23.7552L51.2422 24.4544C51.1667 24.9181 51.2238 25.2585 51.4078 25.4535C51.7997 25.8712 51.669 26.9089 51.1686 27.3432C50.5853 27.8529 50.2725 27.7793 49.9615 27.0598C49.8143 26.7213 49.6009 26.4379 49.4831 26.4305C49.1887 26.4121 48.7416 25.7553 48.7324 25.3321C48.725 24.9273 49.1354 24.8923 49.4868 25.2677C49.7959 25.5952 49.7959 25.3431 49.4868 24.7635C49.1041 24.0422 49.0967 23.7773 49.7315 23.7184ZM60.3667 31.9616C60.4642 31.9343 60.5673 31.9343 60.6648 31.9616C60.9316 32.0297 61.042 32.2339 61.042 32.6608C61.042 33.1631 60.95 33.2606 60.4882 33.2845C60.0282 33.3085 59.9398 33.2386 59.9417 32.8503C59.9454 32.3572 60.1036 32.0407 60.3667 31.9616ZM40.6658 32.9791C40.6352 32.9704 40.6032 32.9678 40.5716 32.9716C40.54 32.9754 40.5095 32.9855 40.4818 33.0012C40.3494 33.0748 40.3696 33.1815 40.5444 33.3066C40.7174 33.4281 40.7468 33.5495 40.6198 33.6378C40.2334 33.9028 39.8691 34.4401 40.0697 34.4529C40.1819 34.4603 40.3236 34.3425 40.3825 34.1898C40.4414 34.0389 40.7652 33.8733 41.1001 33.82C41.8766 33.6985 42.1029 33.3765 41.4423 33.3342C41.1663 33.3177 40.8866 33.2109 40.8167 33.095C40.7828 33.0388 40.7289 32.9974 40.6658 32.9791ZM59.6123 37.0694C59.7669 37.0786 59.9435 37.2277 60.0079 37.3951C60.1238 37.7042 59.7264 37.8018 59.4688 37.5294C59.2443 37.2902 59.3179 37.051 59.6123 37.0694ZM57.8018 37.5846C58.1182 37.673 58.1182 37.7134 57.8275 38.1109C57.5221 38.5249 56.9314 38.6758 56.9314 38.3409C56.9314 37.9766 57.4834 37.4981 57.8018 37.5846ZM20.4166 37.638C20.7883 37.6619 20.9134 37.7594 20.8656 37.9986C20.7938 38.3611 20.5344 38.4641 20.1498 38.2857C19.6898 38.0722 19.8812 37.6049 20.4166 37.638ZM44.0018 37.8588C43.9006 37.7925 43.5988 37.9397 43.3265 38.1845C42.7432 38.7052 43.0689 38.8137 43.7313 38.3169C43.9834 38.1311 44.103 37.925 44.0018 37.8588ZM58.915 38.2249C59.1983 38.2433 59.2738 38.3501 59.1965 38.6482C59.0769 39.0953 58.8542 39.2738 58.6629 39.0732C58.3777 38.7714 58.547 38.201 58.915 38.2249ZM20.4774 42.7053C20.5694 42.7053 20.6558 42.7293 20.7294 42.779C20.8362 42.8526 20.7607 43.0218 20.5602 43.1617C20.0928 43.4874 19.8978 43.4781 19.8978 43.1304C19.8978 42.8912 20.2032 42.7017 20.4774 42.7053ZM35.4918 43.5812C35.7917 43.5996 35.915 43.7339 35.926 44.0559C35.9352 44.3043 35.9812 44.7128 36.0272 44.9649C36.1284 45.5132 36.0695 45.5261 35.6574 45.044C35.4488 44.7657 35.2963 44.4494 35.2084 44.1129C35.0906 43.6345 35.1311 43.5609 35.4918 43.5812ZM50.6865 45.3274C50.5062 45.32 50.5154 45.3789 50.7251 45.5261C50.8907 45.6438 50.9551 45.7395 50.865 45.7358C50.7766 45.7321 50.7638 45.826 50.8374 45.9474C51.025 46.2639 51.2017 46.0339 51.0582 45.6567C50.9938 45.4819 50.8263 45.3366 50.6865 45.3292M55.4079 49.1196C55.1871 49.1141 54.9755 49.1858 54.694 49.3349C54.0794 49.6587 53.9175 50.0635 54.4806 49.8666C55.1706 49.6256 55.5478 49.5833 55.5165 49.7562C55.4429 50.139 55.5496 50.2677 55.8495 50.1721C56.0111 50.118 56.1797 50.0876 56.35 50.0819C56.6757 50.1021 56.5432 49.5428 56.1807 49.3643C55.8569 49.2024 55.6287 49.1251 55.4079 49.1196ZM57.2737 50.8805C57.2424 50.9246 57.3234 51.1234 57.5037 51.5668C57.6858 52.0102 57.857 52.3764 57.8846 52.3782C57.9122 52.3819 57.9342 52.1317 57.9342 51.8281C57.9342 51.5024 57.7797 51.1712 57.5534 51.0166C57.4869 50.9682 57.4174 50.9239 57.3454 50.8842C57.3086 50.8658 57.2847 50.8657 57.2718 50.8805M56.1752 50.9614C56.1337 50.9612 56.0925 50.9687 56.0538 50.9835C55.7354 51.0866 55.5386 51.6625 55.5349 52.496C55.5349 52.8235 55.6177 53.0112 55.7336 52.9468C55.844 52.8842 55.8808 52.6119 55.8127 52.3396H55.809C55.7753 52.1718 55.7758 51.9989 55.8106 51.8313C55.8454 51.6637 55.9137 51.5049 56.0114 51.3644C56.201 51.0884 56.2525 50.9725 56.1752 50.9614ZM58.3114 51.0056C58.201 50.9982 58.1642 51.0884 58.2323 51.2025C58.3004 51.3165 58.4494 51.4159 58.5598 51.4233C58.6702 51.4288 58.7034 51.3423 58.6353 51.2282C58.5672 51.1142 58.4218 51.013 58.3114 51.0056ZM59.513 61.374C59.7963 61.3611 60.1386 61.5764 60.1386 61.8524C60.1386 62.0051 60.0926 62.1284 60.0374 62.1247C59.9822 62.121 59.9362 62.0272 59.9362 61.9168C59.9362 61.8064 59.7393 61.7052 59.4982 61.6905C59.1946 61.6721 59.1192 61.604 59.259 61.4697C59.3298 61.409 59.4197 61.3751 59.513 61.374ZM23.5042 61.4531C23.6146 61.4586 23.701 61.5543 23.701 61.6647C23.7014 61.6903 23.6964 61.7157 23.6863 61.7393C23.6763 61.7628 23.6614 61.784 23.6427 61.8015C23.624 61.819 23.6019 61.8324 23.5777 61.8409C23.5535 61.8493 23.5278 61.8526 23.5023 61.8505C23.4486 61.8465 23.3983 61.8225 23.3612 61.7834C23.3242 61.7443 23.303 61.6928 23.3018 61.639C23.3018 61.5285 23.3938 61.4458 23.5042 61.4531ZM24.0138 61.6831C24.369 61.7052 25.7066 62.7577 25.7066 63.0153C25.7066 63.0889 25.565 63.1919 25.3975 63.2453C25.1951 63.3115 25.0295 63.1772 24.9081 62.8534C24.8069 62.5847 24.5401 62.2921 24.3156 62.2075C23.9513 62.0695 23.7176 61.6647 24.0138 61.6831ZM59.581 62.1799C59.6106 62.1724 59.6416 62.1717 59.6715 62.1777C59.7014 62.1838 59.7296 62.1965 59.754 62.2149C59.995 62.3805 59.9932 62.9233 59.7503 62.9086C59.6454 62.9012 59.5056 62.7982 59.4375 62.6859C59.3142 62.4798 59.4173 62.2277 59.5774 62.1817L59.581 62.1799ZM57.7981 63.0079C58.0318 63.0208 58.3317 63.0962 58.8101 63.2416C59.4302 63.4293 59.9362 63.6409 59.9362 63.709C59.9362 63.7789 60.433 64.0843 61.0402 64.3897C61.9583 64.8497 62.1386 65.0246 62.1386 65.4496C62.1386 65.8838 62.0485 65.9519 61.5204 65.9188C61.1818 65.8986 60.8654 65.8415 60.8212 65.7937C60.6317 65.5931 60.7586 65.3723 61.0512 65.3907C61.2223 65.4017 61.3051 65.3153 61.237 65.2012C61.169 65.0871 60.8083 64.9767 60.4366 64.9528C60.0024 64.9252 59.6638 64.7688 59.4982 64.5185C59.1486 63.9978 57.949 63.6574 57.7134 64.0107C57.5699 64.2223 57.5037 64.2205 57.3712 64.0033C57.2718 63.8451 57.0547 63.7844 56.8413 63.8525C56.2893 64.031 56.5598 63.4679 57.1762 63.1588C57.3648 63.0502 57.5806 62.9978 57.7981 63.0079ZM61.4394 63.4146C61.605 63.4256 61.7412 63.5158 61.7412 63.6188C61.7412 63.8709 61.4266 64.0346 61.2665 63.8635C61.0402 63.6243 61.1285 63.3962 61.4394 63.4146ZM61.7946 64.2205C62.0338 64.2591 61.9878 64.5314 61.7302 64.6014C61.5977 64.6363 61.5241 64.5609 61.5682 64.4321C61.6124 64.3033 61.7154 64.2058 61.7946 64.2205ZM62.7937 64.8958C63.2905 64.927 64.1406 65.4919 64.1406 65.7937C64.1406 65.8986 63.8885 65.9666 63.5812 65.9482C63.2721 65.9298 62.9262 66.0016 62.8158 66.1065C62.7035 66.2113 62.549 66.2298 62.4735 66.1488C62.3999 66.0697 62.3374 65.7495 62.3374 65.4386C62.3374 64.9804 62.4257 64.8718 62.7937 64.8958ZM59.9178 65.341C60.0269 65.3443 60.1344 65.3686 60.2342 65.4128C60.3998 65.4864 60.536 65.6409 60.536 65.755C60.536 66.02 59.6013 65.9611 59.4375 65.6851C59.3198 65.4882 59.5994 65.3318 59.9178 65.341ZM64.7919 65.6612C65.0385 65.7109 65.2409 65.8415 65.2409 65.9519C65.2409 66.0623 65.0385 66.169 64.7919 66.1893C64.481 66.2132 64.343 66.1194 64.343 65.8949C64.343 65.6686 64.481 65.5968 64.7919 65.6612ZM69.0221 110.73C69.4471 110.756 69.4453 111.308 69.0184 111.367C68.7056 111.407 68.172 112.611 67.7488 114.23C67.1858 117.779 67.4452 120 68.5842 121.73C70.6174 124.03 81.5378 126.282 84.2702 130.608C77.2285 128.313 56.5046 125.032 49.1814 124.311L49.0544 123.365C48.9642 122.705 49.001 122.374 49.1758 122.272C49.3451 122.177 49.2807 122.122 48.979 122.101C48.7306 122.083 48.5153 122 48.5042 121.917C48.3092 120.501 48.3883 120.236 49.0875 119.987C49.4702 119.851 50.1087 119.796 50.5062 119.866C50.9036 119.934 51.3286 119.915 51.4519 119.822C51.6028 119.708 51.7629 119.862 51.9358 120.293C52.1842 120.907 52.2247 120.929 53.1134 120.861C54.6186 120.743 55.3932 120.832 56.396 121.235C57.7797 121.79 59.9343 121.857 59.6234 121.336C59.5626 121.233 59.7448 121.163 60.0282 121.181C60.3152 121.2 60.5986 121.334 60.6519 121.479C60.7071 121.625 60.9463 121.768 61.191 121.801C61.4517 121.846 61.6875 121.983 61.8553 122.188C62.2086 122.692 62.2858 122.585 62.1534 121.766C62.0669 121.226 61.9215 120.983 61.6363 120.915C61.2076 120.813 60.7384 120.291 60.7384 119.915C60.7384 119.787 60.9408 119.603 61.1874 119.501L61.64 119.317L61.1358 119.089C60.7034 118.887 60.6832 118.841 60.985 118.736C61.2352 118.651 61.3014 118.48 61.215 118.132C61.1266 117.776 61.1929 117.617 61.467 117.533C61.7191 117.441 61.9482 117.295 62.1386 117.106C62.3042 116.933 62.6244 116.705 62.8507 116.598C63.1856 116.442 63.3052 116.48 63.5058 116.811C63.745 117.212 63.7505 117.211 64.1682 116.848C64.5343 116.53 64.5748 116.338 64.4626 115.47C64.3448 114.587 64.3816 114.44 64.7386 114.27C64.9594 114.164 65.1434 113.965 65.1434 113.825C65.1434 113.683 65.3218 113.385 65.5426 113.163C65.7634 112.942 65.9456 112.708 65.9456 112.647C65.9456 112.467 66.7294 111.788 66.9263 111.801C67.0275 111.807 67.1416 111.742 67.1784 111.658C67.2888 111.404 68.6688 110.708 69.0221 110.73ZM38.7044 121.019L40.5941 121.766C42.0072 122.324 42.6714 122.495 43.2032 122.429C43.6356 122.374 43.9226 122.418 43.9226 122.539C43.9226 122.65 44.3109 122.819 44.7856 122.92C45.3026 123.031 45.8013 123.288 46.0368 123.57L46.4858 123.61C46.5226 123.347 46.7397 123.146 47.0451 123.089C47.6781 122.97 47.9872 123.176 47.8658 123.64C47.8106 123.838 47.8731 124.221 47.9982 124.278C41.9667 123.579 38.0144 123.145 32.4613 123.505C32.6269 123.408 33.5616 122.942 33.994 122.966C34.454 122.994 35.1164 122.837 35.604 122.582C36.0566 122.344 36.7632 122.109 37.1735 122.057C37.6114 122.002 38.0843 121.766 38.3143 121.49L38.7044 121.019Z" fill="url(#paint1_linear_272_443)" fill-opacity="0.98"/>
<defs>
<linearGradient id="paint0_linear_272_443" x1="92" y1="0" x2="92" y2="154.289" gradientUnits="userSpaceOnUse">
<stop stop-color="#9747FF"/>
<stop offset="1" stop-color="#680099"/>
</linearGradient>
<linearGradient id="paint1_linear_272_443" x1="92" y1="0" x2="92" y2="154.289" gradientUnits="userSpaceOnUse">
<stop stop-color="#9747FF"/>
<stop offset="1" stop-color="#680099"/>
</linearGradient>
</defs>
</svg>
