<svg width="181" height="143" viewBox="0 0 181 143" fill="none" xmlns="http://www.w3.org/2000/svg">
<path id="Vector" d="M80.6363 0C33.0039 0 0 38.1342 0 57.2022C0 76.2665 9.52612 90.5671 28.5802 90.5671C47.6324 90.5671 57.1586 95.3327 57.1586 109.633C57.1586 128.701 71.4487 143 90.4991 143C152.422 143 181 109.635 181 76.2665C181 19.0662 137.795 0 80.6363 0ZM67.9227 19.0662C69.499 19.0467 71.0635 19.3406 72.5254 19.9308C73.9873 20.521 75.3176 21.3958 76.4391 22.5044C77.5606 23.613 78.4511 24.9333 79.0588 26.3889C79.6665 27.8445 79.9795 29.4064 79.9795 30.9839C79.9795 32.5614 79.6665 34.1233 79.0588 35.5789C78.4511 37.0345 77.5606 38.3548 76.4391 39.4634C75.3176 40.572 73.9873 41.4468 72.5254 42.037C71.0635 42.6272 69.499 42.9211 67.9227 42.9016C64.7897 42.863 61.7981 41.5903 59.5962 39.3595C57.3944 37.1287 56.1596 34.1195 56.1596 30.9839C56.1596 27.8483 57.3944 24.8391 59.5962 22.6083C61.7981 20.3775 64.7897 19.1048 67.9227 19.0662ZM106.029 19.0662C107.605 19.0467 109.17 19.3406 110.632 19.9308C112.094 20.521 113.424 21.3958 114.545 22.5044C115.667 23.613 116.557 24.9333 117.165 26.3889C117.773 27.8445 118.086 29.4064 118.086 30.9839C118.086 32.5614 117.773 34.1233 117.165 35.5789C116.557 37.0345 115.667 38.3548 114.545 39.4634C113.424 40.572 112.094 41.4468 110.632 42.037C109.17 42.6272 107.605 42.9211 106.029 42.9016C102.896 42.863 99.9044 41.5903 97.7025 39.3595C95.5007 37.1287 94.266 34.1195 94.266 30.9839C94.266 27.8483 95.5007 24.8391 97.7025 22.6083C99.9044 20.3775 102.896 19.1048 106.029 19.0662ZM140.512 38.1342C142.088 38.1147 143.652 38.4086 145.114 38.9987C146.575 39.5888 147.905 40.4634 149.027 41.5718C150.148 42.6803 151.038 44.0004 151.646 45.4558C152.254 46.9112 152.567 48.4728 152.567 50.0501C152.567 51.6274 152.254 53.189 151.646 54.6444C151.038 56.0997 150.148 57.4199 149.027 58.5283C147.905 59.6368 146.575 60.5114 145.114 61.1015C143.652 61.6916 142.088 61.9854 140.512 61.966C137.379 61.9273 134.388 60.6549 132.186 58.4244C129.985 56.194 128.75 53.1852 128.75 50.0501C128.75 46.915 129.985 43.9062 132.186 41.6757C134.388 39.4453 137.379 38.1728 140.512 38.1342ZM34.5786 40.4219C36.1599 40.3943 37.7308 40.6822 39.1997 41.2686C40.6686 41.8551 42.0061 42.7285 43.1341 43.8378C44.2621 44.9471 45.158 46.2702 45.7696 47.7297C46.3812 49.1892 46.6961 50.7561 46.6961 52.3387C46.6961 53.9214 46.3812 55.4882 45.7696 56.9477C45.158 58.4073 44.2621 59.7303 43.1341 60.8396C42.0061 61.9489 40.6686 62.8223 39.1997 63.4088C37.7308 63.9953 36.1599 64.2831 34.5786 64.2555C31.4563 64.2011 28.4803 62.9216 26.2915 60.6927C24.1028 58.4638 22.8763 55.4637 22.8763 52.3387C22.8763 49.2137 24.1028 46.2137 26.2915 43.9848C28.4803 41.7559 31.4563 40.4764 34.5786 40.4219ZM97.741 95.3327C101.531 95.3327 105.166 96.8394 107.846 99.5213C110.526 102.203 112.031 105.841 112.031 109.633C112.031 117.531 102.013 123.934 94.1209 123.934C90.331 123.934 86.6962 122.427 84.0163 119.745C81.3364 117.063 79.8308 113.426 79.8308 109.633C79.8308 101.736 89.8493 95.3327 97.741 95.3327Z" fill="url(#paint0_linear_272_472)" fill-opacity="0.98"/>
<defs>
<linearGradient id="paint0_linear_272_472" x1="90.5" y1="0" x2="90.5" y2="143" gradientUnits="userSpaceOnUse">
<stop stop-color="#9747FF"/>
<stop offset="1" stop-color="#680099"/>
</linearGradient>
</defs>
</svg>
