<svg width="52" height="51" viewBox="0 0 52 51" fill="none" xmlns="http://www.w3.org/2000/svg">
<g id="no">
<path id="Vector" fill-rule="evenodd" clip-rule="evenodd" d="M51.9001 25.5C51.9001 28.8487 51.2406 32.1646 49.9591 35.2584C48.6776 38.3522 46.7993 41.1633 44.4314 43.5312C42.0635 45.8991 39.2524 47.7774 36.1586 49.0589C33.0648 50.3404 29.7489 51 26.4001 51C23.0514 51 19.7355 50.3404 16.6417 49.0589C13.5479 47.7774 10.7368 45.8991 8.36892 43.5312C6.00103 41.1633 4.12271 38.3522 2.84122 35.2584C1.55972 32.1646 0.900146 28.8487 0.900146 25.5C0.900147 18.737 3.58675 12.251 8.36892 7.46878C13.1511 2.6866 19.6371 0 26.4001 0C33.1632 0 39.6492 2.6866 44.4314 7.46878C49.2135 12.251 51.9001 18.737 51.9001 25.5ZM13.0636 38.8365C12.5325 38.3052 12.2341 37.5846 12.2341 36.8333C12.2341 36.082 12.5325 35.3615 13.0636 34.8302L22.3938 25.5L13.0636 16.1698C12.5475 15.6355 12.2619 14.9198 12.2684 14.1769C12.2749 13.434 12.5728 12.7233 13.0982 12.198C13.6235 11.6727 14.3341 11.3747 15.077 11.3683C15.8199 11.3618 16.5356 11.6474 17.07 12.1635L26.4001 21.4937L35.7303 12.1635C35.9917 11.8929 36.3043 11.677 36.65 11.5285C36.9957 11.3801 37.3675 11.3019 37.7437 11.2986C38.1199 11.2954 38.493 11.367 38.8412 11.5095C39.1894 11.652 39.5057 11.8623 39.7718 12.1284C40.0378 12.3944 40.2482 12.7108 40.3906 13.059C40.5331 13.4072 40.6048 13.7803 40.6015 14.1565C40.5983 14.5327 40.5201 14.9045 40.3716 15.2501C40.2231 15.5958 40.0073 15.9085 39.7366 16.1698L30.4065 25.5L39.7366 34.8302C40.2528 35.3645 40.5383 36.0802 40.5319 36.8231C40.5254 37.566 40.2275 38.2767 39.7021 38.802C39.1768 39.3273 38.4662 39.6253 37.7233 39.6317C36.9804 39.6382 36.2647 39.3526 35.7303 38.8365L26.4001 29.5063L17.07 38.8365C16.5387 39.3677 15.8181 39.6661 15.0668 39.6661C14.3155 39.6661 13.595 39.3677 13.0636 38.8365Z" fill="#575757"/>
</g>
</svg>
