<svg width="219" height="130" viewBox="0 0 219 130" fill="none" xmlns="http://www.w3.org/2000/svg">
<path id="Vector" fill-rule="evenodd" clip-rule="evenodd" d="M153.955 0.0655337C157.231 0.765494 159.804 2.6357 161.911 5.20587C164.016 7.77822 165.419 11.9845 164.016 16.1909C162.378 19.695 159.104 21.7993 156.762 22.7333C155.361 23.2014 154.658 23.2014 153.486 23.4333C153.72 24.1354 153.955 25.0716 154.423 26.2397C155.124 27.1737 155.593 28.5758 155.593 29.9801C157.7 36.2885 159.804 42.8309 161.911 49.1415C166.589 47.2713 171.738 46.1032 177.118 46.1032C200.282 46.1032 219 65.0328 219 88.1665C219 111.305 200.282 130 177.118 130C153.955 130 135.005 111.304 135.005 88.1686C135.005 74.1476 141.789 61.9945 152.317 54.2818C151.616 52.6478 151.147 51.0117 150.679 49.1415L113.477 91.9069V92.6068C113.477 97.5153 110.435 101.956 105.757 103.592L103.416 114.577C108.096 117.847 105.054 125.092 99.6713 124.158L93.3553 123.223C87.7402 122.287 87.2715 114.109 92.8889 112.707L94.9934 101.722C93.5897 100.554 92.6545 99.1514 91.7172 97.5153L83.0601 97.0494C78.8488 115.979 63.6414 130 41.8816 130C20.3539 130 0 111.304 0 88.1686C0 65.0328 18.7179 46.1054 41.8816 46.1054C47.9654 46.1054 53.5805 47.5053 58.9636 49.8436L71.3611 30.2119L68.0871 20.8653C60.5973 17.593 59.43 16.1909 59.43 13.8547C59.1957 11.7505 60.5995 8.94628 66.2147 8.94628H87.9745C91.4851 8.94628 93.3553 10.1143 93.3553 13.1526C93.3553 16.1909 89.3783 17.1249 85.6356 18.2929C83.9975 18.9951 81.8907 20.1631 79.5518 20.8653L80.9533 25.5375L142.724 24.3695V24.1354C142.49 21.5652 143.193 17.1249 146.469 14.7888L147.17 14.0888L148.105 13.8547C150.446 13.1526 152.317 12.9186 153.252 12.4505C154.189 12.2186 153.955 12.4505 153.955 12.2186L153.72 11.9845C153.254 11.2846 152.319 10.8165 151.85 10.5824C146.467 10.5824 140.852 10.8165 135.237 11.0483L134.768 0.299584C140.618 0.299584 146.704 -0.168515 152.785 0.0655337H153.955ZM146.001 35.1204L84.6982 36.0544L99.4391 79.0538L100.374 74.3794C96.1629 71.3433 98.504 64.5647 103.651 64.7987H104.586L110.669 65.7327C116.519 66.6689 116.753 75.0816 110.904 76.2496L110.435 79.0538L146.702 37.4565C146.5 36.6685 146.267 35.8891 146.001 35.1204ZM75.8069 43.065L68.0871 55.4521C77.2106 62.6966 83.2945 73.6795 83.7631 86.2984L90.7821 86.7665L75.8069 43.065ZM177.118 56.8542C172.673 56.8542 168.696 57.7882 164.953 59.1903C165.855 62.161 166.791 65.1215 167.761 68.071C169.865 73.2114 172.206 77.8858 175.246 80.924C175.715 80.69 176.418 80.69 177.118 80.69C181.095 80.69 184.372 83.9623 184.372 88.1686C184.372 92.1409 181.095 95.6473 177.118 95.4132C173.842 95.4132 171.035 93.543 170.099 90.5047C163.315 85.3644 160.273 78.1198 157.7 72.0433V71.8092C156.997 69.7072 156.296 67.3689 155.593 65.2668C149.509 71.1071 145.766 79.0538 145.766 88.1686C145.766 105.462 159.57 119.483 177.118 119.483C194.433 119.483 208.47 105.462 208.47 88.1686C208.47 70.8752 194.433 56.8542 177.118 56.8542ZM41.8816 56.8542C24.5674 56.8542 10.5295 70.8752 10.5295 88.1686C10.5295 105.462 25.9712 119.483 41.8816 119.483C57.7919 119.483 68.5558 109.668 72.0641 96.1132L46.0929 94.2452C44.6891 95.1792 43.2854 95.4132 41.8816 95.4132C40.9464 95.4132 40.0091 95.4132 39.074 94.9451C36.9672 94.477 35.0969 92.843 34.8626 90.7388H34.6283C34.1603 89.2956 34.1603 87.7416 34.6283 86.2984C35.3291 84.1964 36.7351 82.3261 38.8397 81.3921L53.1119 58.9562C49.6035 57.5563 45.8586 56.8542 41.8816 56.8542ZM62.2376 64.5647L50.07 83.9623L72.9993 85.5985C72.2985 76.9518 68.3214 69.7072 62.2376 64.5647Z" fill="url(#paint0_linear_272_457)" fill-opacity="0.98"/>
<defs>
<linearGradient id="paint0_linear_272_457" x1="109.5" y1="0" x2="109.5" y2="130" gradientUnits="userSpaceOnUse">
<stop stop-color="#9747FF"/>
<stop offset="1" stop-color="#680099"/>
</linearGradient>
</defs>
</svg>
