<svg width="153" height="153" viewBox="0 0 153 153" fill="none" xmlns="http://www.w3.org/2000/svg">
<path d="M76.4183 0C34.2013 0.0458999 0 34.2811 0 76.4998C0.0215443 88.4828 2.85781 100.293 8.28024 110.979C13.7027 121.665 21.5596 130.928 31.2178 138.021C30.8124 134.913 30.892 131.705 31.3969 128.532C26.3491 124.15 21.9629 119.06 18.3751 113.42H37.4158C39.2243 110.597 41.0878 107.805 44.339 105.77C42.4342 97.9671 41.2699 89.3747 41.0557 80.3248H43.115C43.7259 77.6459 44.7205 75.0693 46.0679 72.6748H41.1062C41.4305 63.5943 42.7019 54.9972 44.7215 47.231H72.6744V60.8296C75.3796 61.2433 77.9781 62.1808 80.3243 63.5897V47.231H109.692C110.09 48.7564 110.45 50.3215 110.786 51.9081C113.361 51.5139 115.975 51.4537 118.565 51.7291C118.268 50.2235 117.943 48.7238 117.587 47.231H138.839C142.02 54.0055 144.07 61.256 144.905 68.6937C145.792 76.4187 145.809 85.4854 142.999 94.3533C142.087 97.7413 140.918 101.055 139.501 104.265C141.227 106.081 143.317 107.797 145.418 109.549C150.385 99.2385 152.976 87.9446 152.999 76.4998C152.999 34.2505 118.748 0 76.4993 0H76.4183ZM80.3243 8.69343C88.3843 10.0643 96.0862 16.7045 102.154 27.722C104.109 31.2731 105.857 35.2603 107.368 39.5794H80.3243V8.69343ZM72.6744 8.99484V39.5794H47.0471C48.5587 35.2603 50.306 31.2731 52.2613 27.722C57.9712 17.3517 65.1331 10.8645 72.6744 8.99484ZM55.0489 11.0649C51.4932 14.6635 48.3017 19.0515 45.5584 24.0316C42.988 28.6981 40.7772 33.9261 38.9611 39.5794H18.3751C26.8436 26.2593 39.7567 16.0634 55.0489 11.0649ZM100.046 11.7733C114.425 16.9952 126.545 26.8713 134.624 39.5794H115.445C113.634 33.9261 111.426 28.6981 108.856 24.0316C106.291 19.3728 103.326 15.2357 100.046 11.7733ZM14.1631 47.231H36.8191C34.9143 55.1288 33.7469 63.6937 33.4486 72.6763H7.76009C8.23529 63.8619 10.4089 55.2223 14.1616 47.2325M7.76009 80.3248H33.4057C33.6031 89.2844 34.6603 97.8493 36.4565 105.769H14.1616C10.4089 97.7787 8.23529 89.1392 7.76009 80.3248Z" fill="url(#paint0_linear_272_448)" fill-opacity="0.98"/>
<path d="M116.279 57.7864C103.603 57.7864 93.3292 68.0618 93.3292 80.7363C93.3292 93.4108 103.603 103.686 116.279 103.686C128.952 103.686 139.229 93.4108 139.229 80.7363C139.229 68.0618 128.952 57.7864 116.279 57.7864ZM116.279 107.087C90.9271 107.087 79.5593 118.457 79.5593 143.807V146.867C79.6741 152.895 82.3393 153.073 87.9742 152.987H144.584C151.767 152.981 153.048 152.995 152.999 146.867V143.807C152.999 118.457 141.628 107.087 116.279 107.087ZM67.3194 66.3865C56.9354 66.3865 48.5143 74.8076 48.5143 85.1932C48.5143 95.5773 56.9354 103.995 67.3194 103.995C77.7034 103.995 86.123 95.5773 86.123 85.1917C86.123 74.8076 77.7034 66.3865 67.3194 66.3865ZM67.3194 106.781C46.5499 106.781 37.2338 116.099 37.2338 136.867V139.375C37.3286 144.314 39.5119 144.459 44.1279 144.389H73.3858C72.6392 132.014 76.2943 118.871 85.3977 110.516C80.7894 107.998 74.8026 106.781 67.3194 106.781Z" fill="url(#paint1_linear_272_448)" fill-opacity="0.98"/>
<defs>
<linearGradient id="paint0_linear_272_448" x1="76.5" y1="0" x2="76.5" y2="153" gradientUnits="userSpaceOnUse">
<stop stop-color="#9747FF"/>
<stop offset="1" stop-color="#680099"/>
</linearGradient>
<linearGradient id="paint1_linear_272_448" x1="76.5" y1="0" x2="76.5" y2="153" gradientUnits="userSpaceOnUse">
<stop stop-color="#9747FF"/>
<stop offset="1" stop-color="#680099"/>
</linearGradient>
</defs>
</svg>
